<?xml version="1.0" encoding="UTF-8" standalone="no"?><svg xmlns="http://www.w3.org/2000/svg" xmlns:xlink="http://www.w3.org/1999/xlink" contentScriptType="application/ecmascript" contentStyleType="text/css" height="1265.2356px" preserveAspectRatio="none" style="width:2035px;height:1265px;" version="1.1" viewBox="0 0 2035 1265" width="2035.9883px" zoomAndPan="magnify"><defs><filter height="300%" id="f1p7uum3fku90g" width="300%" x="-1" y="-1"><feGaussianBlur result="blurOut" stdDeviation="4.0039100684261975"/><feColorMatrix in="blurOut" result="blurOut2" type="matrix" values="0 0 0 0 0 0 0 0 0 0 0 0 0 0 0 0 0 0 .4 0"/><feOffset dx="8.007820136852395" dy="8.007820136852395" in="blurOut2" result="blurOut3"/><feBlend in="SourceGraphic" in2="blurOut3" mode="normal"/></filter></defs><g><text fill="#000000" font-family="sans-serif" font-size="36.0352" lengthAdjust="spacingAndGlyphs" textLength="658.6432" x="694.6784" y="37.4076">Rockfish Conservation App Process Flow</text><!--MD5=[85bae912d113bb0b86a623a745020199]
class Home--><rect fill="#FEFECE" filter="url(#f1p7uum3fku90g)" height="179.1906" id="Home" style="stroke: #A80036; stroke-width: 3.002932551319648;" width="162.1584" x="975.9531" y="305.5797"/><ellipse cx="1019.4956" cy="337.6109" fill="#ADD1B2" rx="22.0215" ry="22.0215" style="stroke: #A80036; stroke-width: 2.0019550342130987;"/><path d="M1025.0323,329.3529 Q1025.3451,328.915 1025.7204,328.696 Q1026.0958,328.477 1026.5337,328.477 Q1027.2845,328.477 1027.7537,329.0088 Q1028.2229,329.5093 1028.2229,330.7292 L1028.2229,333.6383 Q1028.2229,334.8583 1027.7537,335.39 Q1027.2845,335.9218 1026.5337,335.9218 Q1025.8456,335.9218 1025.4389,335.5152 Q1025.0323,335.1398 1024.8133,334.1075 Q1024.7195,333.3881 1024.3441,333.0127 Q1023.6872,332.262 1022.4673,331.824 Q1021.2473,331.3861 1019.9961,331.3861 Q1018.4633,331.3861 1017.1808,332.043 Q1015.9296,332.6999 1014.9286,334.2014 Q1013.9589,335.7028 1013.9589,337.7674 L1013.9589,339.957 Q1013.9589,342.4282 1015.7419,344.086 Q1017.5249,345.7126 1020.7155,345.7126 Q1022.5924,345.7126 1023.9062,345.2121 Q1024.6882,344.8993 1025.5327,344.0235 Q1026.0645,343.4917 1026.346,343.3353 Q1026.6588,343.1789 1027.0655,343.1789 Q1027.7224,343.1789 1028.2229,343.7107 Q1028.7546,344.2111 1028.7546,344.8993 Q1028.7546,345.5875 1028.0665,346.4008 Q1027.0655,347.5582 1025.4702,348.2151 Q1023.3118,349.1222 1020.7155,349.1222 Q1017.6813,349.1222 1015.2727,347.871 Q1013.3021,346.87 1011.9257,344.7429 Q1010.5494,342.5846 1010.5494,340.0196 L1010.5494,337.7048 Q1010.5494,335.0459 1011.7693,332.7625 Q1013.0205,330.4477 1015.2102,329.2278 Q1017.3998,327.9765 1019.871,327.9765 Q1021.3412,327.9765 1022.6237,328.3206 Q1023.9374,328.6334 1025.0323,329.3529 Z "/><text fill="#000000" font-family="sans-serif" font-size="24.0235" lengthAdjust="spacingAndGlyphs" textLength="68.0665" x="1050.5259" y="347.4409">Home</text><line style="stroke: #A80036; stroke-width: 3.002932551319648;" x1="977.955" x2="1136.1095" y1="369.6422" y2="369.6422"/><text fill="#000000" font-family="sans-serif" font-size="22.0215" lengthAdjust="spacingAndGlyphs" textLength="138.1349" x="987.9648" y="400.5103">Why important</text><text fill="#000000" font-family="sans-serif" font-size="22.0215" lengthAdjust="spacingAndGlyphs" textLength="118.1153" x="987.9648" y="428.2092">What we do</text><text fill="#000000" font-family="sans-serif" font-size="22.0215" lengthAdjust="spacingAndGlyphs" textLength="130.1271" x="987.9648" y="455.9081">How we do it</text><line style="stroke: #A80036; stroke-width: 3.002932551319648;" x1="977.955" x2="1136.1095" y1="468.7546" y2="468.7546"/><!--MD5=[4b1bbb36bf22db452d2f18c9a96e40ec]
class Species--><rect fill="#FEFECE" filter="url(#f1p7uum3fku90g)" height="123.7928" id="Species" style="stroke: #A80036; stroke-width: 3.002932551319648;" width="204.1994" x="604.5904" y="61.3412"/><ellipse cx="657.1417" cy="93.3724" fill="#ADD1B2" rx="22.0215" ry="22.0215" style="stroke: #A80036; stroke-width: 2.0019550342130987;"/><path d="M662.6784,85.1144 Q662.9912,84.6764 663.3666,84.4575 Q663.7419,84.2385 664.1799,84.2385 Q664.9306,84.2385 665.3998,84.7703 Q665.869,85.2708 665.869,86.4907 L665.869,89.3998 Q665.869,90.6197 665.3998,91.1515 Q664.9306,91.6833 664.1799,91.6833 Q663.4917,91.6833 663.085,91.2766 Q662.6784,90.9013 662.4594,89.869 Q662.3656,89.1496 661.9902,88.7742 Q661.3333,88.0235 660.1134,87.5855 Q658.8935,87.1476 657.6422,87.1476 Q656.1095,87.1476 654.827,87.8045 Q653.5758,88.4614 652.5748,89.9629 Q651.6051,91.4643 651.6051,93.5288 L651.6051,95.7185 Q651.6051,98.1896 653.3881,99.8475 Q655.1711,101.4741 658.3617,101.4741 Q660.2385,101.4741 661.5523,100.9736 Q662.3343,100.6608 663.1789,99.7849 Q663.7107,99.2532 663.9922,99.0968 Q664.305,98.9404 664.7116,98.9404 Q665.3685,98.9404 665.869,99.4721 Q666.4008,99.9726 666.4008,100.6608 Q666.4008,101.349 665.7126,102.1623 Q664.7116,103.3196 663.1163,103.9765 Q660.958,104.8837 658.3617,104.8837 Q655.3275,104.8837 652.9189,103.6325 Q650.9482,102.6315 649.5718,100.5044 Q648.1955,98.346 648.1955,95.781 L648.1955,93.4663 Q648.1955,90.8074 649.4154,88.5239 Q650.6667,86.2092 652.8563,84.9892 Q655.0459,83.738 657.5171,83.738 Q658.9873,83.738 660.2698,84.0821 Q661.5836,84.3949 662.6784,85.1144 Z "/><text fill="#000000" font-family="sans-serif" font-size="24.0235" lengthAdjust="spacingAndGlyphs" textLength="90.088" x="690.174" y="103.2023">Species</text><line style="stroke: #A80036; stroke-width: 3.002932551319648;" x1="606.5924" x2="806.7879" y1="125.4037" y2="125.4037"/><text fill="#000000" font-family="sans-serif" font-size="22.0215" lengthAdjust="spacingAndGlyphs" textLength="180.176" x="616.6022" y="156.2717">Profiles of species</text><line style="stroke: #A80036; stroke-width: 3.002932551319648;" x1="606.5924" x2="806.7879" y1="169.1183" y2="169.1183"/><!--MD5=[4034599964776293c58b00793c120f39]
class Training--><rect fill="#FEFECE" filter="url(#f1p7uum3fku90g)" height="123.7928" id="Training" style="stroke: #A80036; stroke-width: 3.002932551319648;" width="202.1975" x="627.6129" y="1120.3754"/><ellipse cx="679.2633" cy="1152.4066" fill="#ADD1B2" rx="22.0215" ry="22.0215" style="stroke: #A80036; stroke-width: 2.0019550342130987;"/><path d="M684.8,1144.1486 Q685.1128,1143.7107 685.4882,1143.4917 Q685.8635,1143.2727 686.3015,1143.2727 Q687.0522,1143.2727 687.5214,1143.8045 Q687.9906,1144.305 687.9906,1145.5249 L687.9906,1148.434 Q687.9906,1149.654 687.5214,1150.1857 Q687.0522,1150.7175 686.3015,1150.7175 Q685.6133,1150.7175 685.2066,1150.3109 Q684.8,1149.9355 684.581,1148.9032 Q684.4872,1148.1838 684.1118,1147.8084 Q683.4549,1147.0577 682.235,1146.6197 Q681.0151,1146.1818 679.7638,1146.1818 Q678.2311,1146.1818 676.9486,1146.8387 Q675.6974,1147.4956 674.6964,1148.9971 Q673.7267,1150.4985 673.7267,1152.563 L673.7267,1154.7527 Q673.7267,1157.2239 675.5097,1158.8817 Q677.2927,1160.5083 680.4833,1160.5083 Q682.3601,1160.5083 683.6739,1160.0078 Q684.4559,1159.695 685.3005,1158.8192 Q685.8323,1158.2874 686.1138,1158.131 Q686.4266,1157.9746 686.8332,1157.9746 Q687.4901,1157.9746 687.9906,1158.5064 Q688.5224,1159.0068 688.5224,1159.695 Q688.5224,1160.3832 687.8342,1161.1965 Q686.8332,1162.3539 685.2379,1163.0108 Q683.0796,1163.9179 680.4833,1163.9179 Q677.4491,1163.9179 675.0405,1162.6667 Q673.0698,1161.6657 671.6935,1159.5386 Q670.3171,1157.3803 670.3171,1154.8152 L670.3171,1152.5005 Q670.3171,1149.8416 671.537,1147.5582 Q672.7883,1145.2434 674.9779,1144.0235 Q677.1675,1142.7722 679.6387,1142.7722 Q681.1089,1142.7722 682.3914,1143.1163 Q683.7052,1143.4291 684.8,1144.1486 Z "/><text fill="#000000" font-family="sans-serif" font-size="24.0235" lengthAdjust="spacingAndGlyphs" textLength="90.088" x="712.0954" y="1162.2366">Training</text><line style="stroke: #A80036; stroke-width: 3.002932551319648;" x1="629.6149" x2="827.8084" y1="1184.4379" y2="1184.4379"/><text fill="#000000" font-family="sans-serif" font-size="22.0215" lengthAdjust="spacingAndGlyphs" textLength="178.174" x="639.6246" y="1215.306">Identification game</text><line style="stroke: #A80036; stroke-width: 3.002932551319648;" x1="629.6149" x2="827.8084" y1="1228.1525" y2="1228.1525"/><!--MD5=[2ac18e450f834edecc7b1595539f49fe]
class Creel--><rect fill="#FEFECE" filter="url(#f1p7uum3fku90g)" height="123.7928" id="Creel" style="stroke: #A80036; stroke-width: 3.002932551319648;" width="334.3265" x="589.5758" y="605.8729"/><ellipse cx="718.2014" cy="637.9042" fill="#ADD1B2" rx="22.0215" ry="22.0215" style="stroke: #A80036; stroke-width: 2.0019550342130987;"/><path d="M723.738,629.6461 Q724.0508,629.2082 724.4262,628.9892 Q724.8016,628.7703 725.2395,628.7703 Q725.9902,628.7703 726.4594,629.3021 Q726.9286,629.8025 726.9286,631.0225 L726.9286,633.9316 Q726.9286,635.1515 726.4594,635.6833 Q725.9902,636.2151 725.2395,636.2151 Q724.5513,636.2151 724.1447,635.8084 Q723.738,635.433 723.5191,634.4008 Q723.4252,633.6813 723.0499,633.306 Q722.393,632.5552 721.173,632.1173 Q719.9531,631.6794 718.7019,631.6794 Q717.1691,631.6794 715.8866,632.3363 Q714.6354,632.9932 713.6344,634.4946 Q712.6647,635.9961 712.6647,638.0606 L712.6647,640.2502 Q712.6647,642.7214 714.4477,644.3793 Q716.2307,646.0059 719.4213,646.0059 Q721.2981,646.0059 722.6119,645.5054 Q723.3939,645.1926 724.2385,644.3167 Q724.7703,643.7849 725.0518,643.6285 Q725.3646,643.4721 725.7713,643.4721 Q726.4282,643.4721 726.9286,644.0039 Q727.4604,644.5044 727.4604,645.1926 Q727.4604,645.8807 726.7722,646.694 Q725.7713,647.8514 724.176,648.5083 Q722.0176,649.4154 719.4213,649.4154 Q716.3871,649.4154 713.9785,648.1642 Q712.0078,647.1632 710.6315,645.0362 Q709.2551,642.8778 709.2551,640.3128 L709.2551,637.998 Q709.2551,635.3392 710.4751,633.0557 Q711.7263,630.741 713.9159,629.521 Q716.1056,628.2698 718.5767,628.2698 Q720.0469,628.2698 721.3294,628.6139 Q722.6432,628.9267 723.738,629.6461 Z "/><text fill="#000000" font-family="sans-serif" font-size="24.0235" lengthAdjust="spacingAndGlyphs" textLength="60.0587" x="759.2414" y="647.7341">Creel</text><line style="stroke: #A80036; stroke-width: 3.002932551319648;" x1="591.5777" x2="921.9003" y1="669.9355" y2="669.9355"/><text fill="#000000" font-family="sans-serif" font-size="22.0215" lengthAdjust="spacingAndGlyphs" textLength="310.303" x="601.5875" y="700.8035">Community submitted catch data</text><line style="stroke: #A80036; stroke-width: 3.002932551319648;" x1="591.5777" x2="921.9003" y1="713.65" y2="713.65"/><!--MD5=[71399f3ba5b31d6aa8714b237b12f17c]
class Fishing--><rect fill="#FEFECE" filter="url(#f1p7uum3fku90g)" height="123.7928" id="Fishing" style="stroke: #A80036; stroke-width: 3.002932551319648;" width="356.348" x="1621.5836" y="605.8729"/><ellipse cx="1750.2092" cy="637.9042" fill="#ADD1B2" rx="22.0215" ry="22.0215" style="stroke: #A80036; stroke-width: 2.0019550342130987;"/><path d="M1755.7458,629.6461 Q1756.0587,629.2082 1756.434,628.9892 Q1756.8094,628.7703 1757.2473,628.7703 Q1757.998,628.7703 1758.4673,629.3021 Q1758.9365,629.8025 1758.9365,631.0225 L1758.9365,633.9316 Q1758.9365,635.1515 1758.4673,635.6833 Q1757.998,636.2151 1757.2473,636.2151 Q1756.5591,636.2151 1756.1525,635.8084 Q1755.7458,635.433 1755.5269,634.4008 Q1755.433,633.6813 1755.0577,633.306 Q1754.4008,632.5552 1753.1808,632.1173 Q1751.9609,631.6794 1750.7097,631.6794 Q1749.1769,631.6794 1747.8944,632.3363 Q1746.6432,632.9932 1745.6422,634.4946 Q1744.6725,635.9961 1744.6725,638.0606 L1744.6725,640.2502 Q1744.6725,642.7214 1746.4555,644.3793 Q1748.2385,646.0059 1751.4291,646.0059 Q1753.306,646.0059 1754.6197,645.5054 Q1755.4018,645.1926 1756.2463,644.3167 Q1756.7781,643.7849 1757.0596,643.6285 Q1757.3724,643.4721 1757.7791,643.4721 Q1758.436,643.4721 1758.9365,644.0039 Q1759.4682,644.5044 1759.4682,645.1926 Q1759.4682,645.8807 1758.7801,646.694 Q1757.7791,647.8514 1756.1838,648.5083 Q1754.0254,649.4154 1751.4291,649.4154 Q1748.3949,649.4154 1745.9863,648.1642 Q1744.0156,647.1632 1742.6393,645.0362 Q1741.263,642.8778 1741.263,640.3128 L1741.263,637.998 Q1741.263,635.3392 1742.4829,633.0557 Q1743.7341,630.741 1745.9238,629.521 Q1748.1134,628.2698 1750.5846,628.2698 Q1752.0547,628.2698 1753.3372,628.6139 Q1754.651,628.9267 1755.7458,629.6461 Z "/><text fill="#000000" font-family="sans-serif" font-size="24.0235" lengthAdjust="spacingAndGlyphs" textLength="82.0802" x="1791.2493" y="647.7341">Fishing</text><line style="stroke: #A80036; stroke-width: 3.002932551319648;" x1="1623.5855" x2="1975.9296" y1="669.9355" y2="669.9355"/><text fill="#000000" font-family="sans-serif" font-size="22.0215" lengthAdjust="spacingAndGlyphs" textLength="332.3245" x="1633.5953" y="700.8035">Safe gear, catching, and releasing</text><line style="stroke: #A80036; stroke-width: 3.002932551319648;" x1="1623.5855" x2="1975.9296" y1="713.65" y2="713.65"/><!--MD5=[1233590a41673a71ec255e6218895848]
class Regulations--><rect fill="#FEFECE" filter="url(#f1p7uum3fku90g)" height="123.7928" id="Regulations" style="stroke: #A80036; stroke-width: 3.002932551319648;" width="388.3793" x="1163.1359" y="605.8729"/><ellipse cx="1281.7517" cy="637.9042" fill="#ADD1B2" rx="22.0215" ry="22.0215" style="stroke: #A80036; stroke-width: 2.0019550342130987;"/><path d="M1287.2884,629.6461 Q1287.6012,629.2082 1287.9765,628.9892 Q1288.3519,628.7703 1288.7898,628.7703 Q1289.5406,628.7703 1290.0098,629.3021 Q1290.479,629.8025 1290.479,631.0225 L1290.479,633.9316 Q1290.479,635.1515 1290.0098,635.6833 Q1289.5406,636.2151 1288.7898,636.2151 Q1288.1017,636.2151 1287.695,635.8084 Q1287.2884,635.433 1287.0694,634.4008 Q1286.9756,633.6813 1286.6002,633.306 Q1285.9433,632.5552 1284.7234,632.1173 Q1283.5034,631.6794 1282.2522,631.6794 Q1280.7195,631.6794 1279.437,632.3363 Q1278.1857,632.9932 1277.1848,634.4946 Q1276.2151,635.9961 1276.2151,638.0606 L1276.2151,640.2502 Q1276.2151,642.7214 1277.998,644.3793 Q1279.781,646.0059 1282.9717,646.0059 Q1284.8485,646.0059 1286.1623,645.5054 Q1286.9443,645.1926 1287.7889,644.3167 Q1288.3206,643.7849 1288.6022,643.6285 Q1288.915,643.4721 1289.3216,643.4721 Q1289.9785,643.4721 1290.479,644.0039 Q1291.0108,644.5044 1291.0108,645.1926 Q1291.0108,645.8807 1290.3226,646.694 Q1289.3216,647.8514 1287.7263,648.5083 Q1285.5679,649.4154 1282.9717,649.4154 Q1279.9374,649.4154 1277.5288,648.1642 Q1275.5582,647.1632 1274.1818,645.0362 Q1272.8055,642.8778 1272.8055,640.3128 L1272.8055,637.998 Q1272.8055,635.3392 1274.0254,633.0557 Q1275.2766,630.741 1277.4663,629.521 Q1279.6559,628.2698 1282.1271,628.2698 Q1283.5973,628.2698 1284.8798,628.6139 Q1286.1935,628.9267 1287.2884,629.6461 Z "/><text fill="#000000" font-family="sans-serif" font-size="24.0235" lengthAdjust="spacingAndGlyphs" textLength="134.131" x="1322.7918" y="647.7341">Regulations</text><line style="stroke: #A80036; stroke-width: 3.002932551319648;" x1="1165.1378" x2="1549.5132" y1="669.9355" y2="669.9355"/><text fill="#000000" font-family="sans-serif" font-size="22.0215" lengthAdjust="spacingAndGlyphs" textLength="364.3558" x="1175.1476" y="700.8035">How to get involved in making change</text><line style="stroke: #A80036; stroke-width: 3.002932551319648;" x1="1165.1378" x2="1549.5132" y1="713.65" y2="713.65"/><path d="M302.2952,97.3763 L302.2952,150.131 A0,0 0 0 0 302.2952,150.131 L534.522,150.131 A0,0 0 0 0 534.522,150.131 L534.522,133.4115 L604.0539,123.4018 L534.522,117.3959 L534.522,117.3959 L514.5024,97.3763 L302.2952,97.3763 A0,0 0 0 0 302.2952,97.3763 " fill="#FBFB77" filter="url(#f1p7uum3fku90g)" style="stroke: #A80036; stroke-width: 2.0019550342130987;"/><path d="M514.5024,97.3763 L514.5024,117.3959 L534.522,117.3959 L514.5024,97.3763 " fill="#FBFB77" style="stroke: #A80036; stroke-width: 2.0019550342130987;"/><text fill="#000000" font-family="sans-serif" font-size="26.0254" lengthAdjust="spacingAndGlyphs" textLength="190.1857" x="314.3069" y="134.4027">fishbase.org API</text><path d="M900.8798,1139.3939 L900.8798,1174.4282 L829.9545,1182.436 L900.8798,1190.4438 L900.8798,1224.8837 A0,0 0 0 0 900.8798,1224.8837 L1313.2825,1224.8837 A0,0 0 0 0 1313.2825,1224.8837 L1313.2825,1159.4135 L1293.263,1139.3939 L900.8798,1139.3939 A0,0 0 0 0 900.8798,1139.3939 " fill="#FBFB77" filter="url(#f1p7uum3fku90g)" style="stroke: #A80036; stroke-width: 2.0019550342130987;"/><path d="M1293.263,1139.3939 L1293.263,1159.4135 L1313.2825,1159.4135 L1293.263,1139.3939 " fill="#FBFB77" style="stroke: #A80036; stroke-width: 2.0019550342130987;"/><text fill="#000000" font-family="sans-serif" font-size="26.0254" lengthAdjust="spacingAndGlyphs" textLength="370.3617" x="912.8915" y="1176.4203">elaborate on msyphus.github.io/</text><text fill="#000000" font-family="sans-serif" font-size="26.0254" lengthAdjust="spacingAndGlyphs" textLength="110.1075" x="912.8915" y="1209.1554">fish-finder</text><path d="M640.6256,369.6422 L640.6256,422.3969 A0,0 0 0 0 640.6256,422.3969 L748.7312,422.3969 L756.739,605.8529 L764.7468,422.3969 L872.8524,422.3969 A0,0 0 0 0 872.8524,422.3969 L872.8524,389.6618 L852.8328,369.6422 L640.6256,369.6422 A0,0 0 0 0 640.6256,369.6422 " fill="#FBFB77" filter="url(#f1p7uum3fku90g)" style="stroke: #A80036; stroke-width: 2.0019550342130987;"/><path d="M852.8328,369.6422 L852.8328,389.6618 L872.8524,389.6618 L852.8328,369.6422 " fill="#FBFB77" style="stroke: #A80036; stroke-width: 2.0019550342130987;"/><text fill="#000000" font-family="sans-serif" font-size="26.0254" lengthAdjust="spacingAndGlyphs" textLength="190.1857" x="652.6373" y="406.6686">Database CRUD</text><path d="M1587.5503,899.1593 L1587.5503,951.914 A0,0 0 0 0 1587.5503,951.914 L2011.9648,951.914 A0,0 0 0 0 2011.9648,951.914 L2011.9648,919.1789 L1991.9453,899.1593 L1807.7654,899.1593 L1799.7576,730.5947 L1791.7498,899.1593 L1587.5503,899.1593 A0,0 0 0 0 1587.5503,899.1593 " fill="#FBFB77" filter="url(#f1p7uum3fku90g)" style="stroke: #A80036; stroke-width: 2.0019550342130987;"/><path d="M1991.9453,899.1593 L1991.9453,919.1789 L2011.9648,919.1789 L1991.9453,899.1593 " fill="#FBFB77" style="stroke: #A80036; stroke-width: 2.0019550342130987;"/><text fill="#000000" font-family="sans-serif" font-size="26.0254" lengthAdjust="spacingAndGlyphs" textLength="382.3734" x="1599.5621" y="936.1857">Make game instead of info page?</text><path d="M1394.3617,369.6422 L1394.3617,422.3969 L1832.7898,422.3969 L1832.7898,389.6618 L1812.7703,369.6422 L1394.3617,369.6422 " fill="#FBFB77" filter="url(#f1p7uum3fku90g)" style="stroke: #A80036; stroke-width: 2.0019550342130987;"/><path d="M1812.7703,369.6422 L1812.7703,389.6618 L1832.7898,389.6618 L1812.7703,369.6422 " fill="#FBFB77" style="stroke: #A80036; stroke-width: 2.0019550342130987;"/><text fill="#000000" font-family="sans-serif" font-size="26.0254" lengthAdjust="spacingAndGlyphs" textLength="396.3871" x="1406.3734" y="406.6686">External links; maybe scrape data</text><path d="M12.0117,866.1271 L12.0117,984.3519 L436.4262,984.3519 L436.4262,886.1466 L416.4066,866.1271 L12.0117,866.1271 " fill="#FBFB77" filter="url(#f1p7uum3fku90g)" style="stroke: #A80036; stroke-width: 2.0019550342130987;"/><path d="M416.4066,866.1271 L416.4066,886.1466 L436.4262,886.1466 L416.4066,866.1271 " fill="#FBFB77" style="stroke: #A80036; stroke-width: 2.0019550342130987;"/><text fill="#000000" font-family="sans-serif" font-size="26.0254" lengthAdjust="spacingAndGlyphs" textLength="372.3636" x="24.0235" y="903.1535">Could save species from profiles</text><text fill="#000000" font-family="sans-serif" font-size="26.0254" lengthAdjust="spacingAndGlyphs" textLength="374.3656" x="24.0235" y="935.8886">list that are used to populate the</text><text fill="#000000" font-family="sans-serif" font-size="26.0254" lengthAdjust="spacingAndGlyphs" textLength="64.0626" x="24.0235" y="968.6237">game</text><path d="M507.4956,850.1114 L507.4956,1001.0714 L949.9277,1001.0714 L949.9277,870.131 L929.9081,850.1114 L507.4956,850.1114 " fill="#FBFB77" filter="url(#f1p7uum3fku90g)" style="stroke: #A80036; stroke-width: 2.0019550342130987;"/><path d="M929.9081,850.1114 L929.9081,870.131 L949.9277,870.131 L929.9081,850.1114 " fill="#FBFB77" style="stroke: #A80036; stroke-width: 2.0019550342130987;"/><text fill="#000000" font-family="sans-serif" font-size="26.0254" lengthAdjust="spacingAndGlyphs" textLength="316.3089" x="519.5073" y="887.1378">Could use the Creel data to</text><text fill="#000000" font-family="sans-serif" font-size="26.0254" lengthAdjust="spacingAndGlyphs" textLength="386.3773" x="519.5073" y="919.8729">populate the game so players are</text><text fill="#000000" font-family="sans-serif" font-size="26.0254" lengthAdjust="spacingAndGlyphs" textLength="392.3832" x="519.5073" y="952.608">practicing on what's most likely to</text><text fill="#000000" font-family="sans-serif" font-size="26.0254" lengthAdjust="spacingAndGlyphs" textLength="114.1114" x="519.5073" y="985.3431">be caught</text><!--MD5=[ae1802651284edcf6c8e312cfcd4cecd]
link Home to Creel--><path d="M975.7689,470.2645 C931.1073,510.1635 876.0635,559.3355 832.3288,598.4036 " fill="none" id="Home-&gt;Creel" style="stroke: #A80036; stroke-width: 2.0019550342130987;"/><polygon fill="#A80036" points="824.8575,605.0801,843.63,599.0509,832.3233,598.4125,832.9617,587.1057,824.8575,605.0801" style="stroke: #A80036; stroke-width: 2.0019550342130987;"/><!--MD5=[9a968ccd33a80003102e713cd2091dcb]
reverse link Species to Home--><path d="M793.4108,191.8066 C849.1152,234.4602 920.9994,289.504 975.6288,331.3348 " fill="none" id="Species&lt;-Home" style="stroke: #A80036; stroke-width: 2.0019550342130987;"/><polygon fill="#A80036" points="785.3129,185.6065,794.7466,202.9202,793.2592,191.6935,804.4859,190.2061,785.3129,185.6065" style="stroke: #A80036; stroke-width: 2.0019550342130987;"/><!--MD5=[e91e2dba18875ad9718e74e631c219da]
reverse link Training to Home--><path d="M839.1815,1130.0931 C892.1212,1100.0914 951.2129,1056.75 984.9619,1000.2581 C1081.2799,839.0306 1078.4091,610.1791 1067.7808,486.0419 " fill="none" id="Training&lt;-Home" style="stroke: #A80036; stroke-width: 2.0019550342130987;"/><polygon fill="#A80036" points="830.0606,1135.166,849.6986,1133.4026,838.8074,1130.2989,841.9112,1119.4077,830.0606,1135.166" style="stroke: #A80036; stroke-width: 2.0019550342130987;"/><!--MD5=[2578997cf769dbeb96394945ce725117]
link Home to Fishing--><path d="M1138.642,427.1464 C1254.6092,469.0313 1470.0136,546.8333 1623.4234,602.2434 " fill="none" id="Home-&gt;Fishing" style="stroke: #A80036; stroke-width: 2.0019550342130987;"/><polygon fill="#A80036" points="1633.4372,605.8589,1619.2126,592.2053,1624.023,602.4577,1613.7706,607.268,1633.4372,605.8589" style="stroke: #A80036; stroke-width: 2.0019550342130987;"/><!--MD5=[715266d1aea3281c4a440b900f169203]
link Home to Regulations--><path d="M1138.2956,470.2645 C1182.9572,510.1635 1238.001,559.3355 1281.7357,598.4036 " fill="none" id="Home-&gt;Regulations" style="stroke: #A80036; stroke-width: 2.0019550342130987;"/><polygon fill="#A80036" points="1289.207,605.0801,1281.1028,587.1057,1281.7412,598.4125,1270.4345,599.0509,1289.207,605.0801" style="stroke: #A80036; stroke-width: 2.0019550342130987;"/><!--MD5=[c95263f21a751bf3a964b5e5de15279c]
link data to Fishing--><path d="M1630.7585,422.4258 C1659.4746,463.8022 1718.0117,548.1465 1758.0609,605.8529 " fill="none" id="data-Fishing" style="stroke: #A80036; stroke-width: 2.0019550342130987; stroke-dasharray: 7.0,7.0;"/><!--MD5=[e0186548c048df19de99547ad05ee2bf]
link data to Regulations--><path d="M1589.9287,422.4258 C1550.4041,463.8022 1469.8374,548.1465 1414.7136,605.8529 " fill="none" id="data-Regulations" style="stroke: #A80036; stroke-width: 2.0019550342130987; stroke-dasharray: 7.0,7.0;"/><!--MD5=[37fadab8f759c3267bfa3c70a715e965]
link Species to idea1--><path d="M670.0303,186.0209 C581.4138,332.55 356.1298,705.0658 264.2,857.0722 " fill="none" id="Species-&gt;idea1" style="stroke: #A80036; stroke-width: 2.0019550342130987; stroke-dasharray: 7.0,7.0;"/><polygon fill="#A80036" points="258.8688,865.8908,275.0469,854.6202,264.0503,857.3265,261.344,846.3299,258.8688,865.8908" style="stroke: #A80036; stroke-width: 2.0019550342130987;"/><!--MD5=[f9d4abfc90c486eb5fdc8ecacdd5071a]
link idea1 to Training--><path d="M338.0661,984.3365 C421.906,1026.4216 535.2867,1083.3382 618.3038,1125.0109 " fill="none" id="idea1-&gt;Training" style="stroke: #A80036; stroke-width: 2.0019550342130987; stroke-dasharray: 7.0,7.0;"/><polygon fill="#A80036" points="627.2546,1129.5039,614.7437,1114.2646,618.3084,1125.0137,607.5593,1128.5784,627.2546,1129.5039" style="stroke: #A80036; stroke-width: 2.0019550342130987;"/><!--MD5=[2c416699237abf902950bc940eba1dac]
link Creel to idea2--><path d="M750.0264,730.5947 C746.445,762.9523 741.9806,803.2817 738.0648,838.6643 " fill="none" id="Creel-&gt;idea2" style="stroke: #A80036; stroke-width: 2.0019550342130987; stroke-dasharray: 7.0,7.0;"/><polygon fill="#A80036" points="736.8696,849.4708,746.8112,832.4437,737.9709,839.5218,730.8928,830.6816,736.8696,849.4708" style="stroke: #A80036; stroke-width: 2.0019550342130987;"/><!--MD5=[c3cff43c4b64ed7e0ebef796f135383e]
link idea2 to Training--><path d="M728.7116,1000.4362 C728.7116,1034.8559 728.7116,1075.7178 728.7116,1109.8014 " fill="none" id="idea2-&gt;Training" style="stroke: #A80036; stroke-width: 2.0019550342130987; stroke-dasharray: 7.0,7.0;"/><polygon fill="#A80036" points="728.7116,1120.1469,736.7195,1102.1293,728.7116,1110.1372,720.7038,1102.1293,728.7116,1120.1469" style="stroke: #A80036; stroke-width: 2.0019550342130987;"/><!--MD5=[831a7b592aac44da2787b5764daf04d1]
@startuml "processFlow"

scale 2048 width
skinparam wrapwidth 200
skinparam maxMessageSize 500
skinparam backgroundColor #FFFFFF

title Rockfish Conservation App Process Flow

class Home {
    Why important
    What we do
    How we do it
}

class Species {
    Profiles of species
}


class Training {
    Identification game
}


class Creel {
    Community submitted catch data
}


class Fishing {
    Safe gear, catching, and releasing
}

class Regulations {
    How to get involved in making change
}

Home- ->Creel
Species<- -Home
Training<- -Home
Home- ->Fishing
Home- ->Regulations

note left of Species: fishbase.org API
note right of Training: elaborate on msyphus.github.io/fish-finder
note top of Creel: Database CRUD
note bottom of Fishing: Make game instead of info page?
note "External links; maybe scrape data" as data
note "Could save species from profiles list that are used to populate the game" as idea1
note "Could use the Creel data to populate the game so players are practicing on what's most likely to be caught" as idea2
data .. Fishing
data .. Regulations
Species ..> idea1
idea1 ..> Training
Creel ..> idea2
idea2 ..> Training


@enduml

PlantUML version 1.2020.10(Sun May 17 03:35:57 MDT 2020)
(GPL source distribution)
Java Runtime: OpenJDK Runtime Environment
JVM: OpenJDK 64-Bit Server VM
Java Version: 14.0.1+7
Operating System: Windows 10
Default Encoding: Cp1252
Language: en
Country: US
--></g></svg>