<?xml version="1.0" encoding="UTF-8" standalone="no"?><svg xmlns="http://www.w3.org/2000/svg" xmlns:xlink="http://www.w3.org/1999/xlink" contentScriptType="application/ecmascript" contentStyleType="text/css" height="1524.2748px" preserveAspectRatio="none" style="width:2029px;height:1524px;" version="1.1" viewBox="0 0 2029 1524" width="2029.7608px" zoomAndPan="magnify"><defs><filter height="300%" id="f1largi9jh8en2" width="300%" x="-1" y="-1"><feGaussianBlur result="blurOut" stdDeviation="5.211195928753181"/><feColorMatrix in="blurOut" result="blurOut2" type="matrix" values="0 0 0 0 0 0 0 0 0 0 0 0 0 0 0 0 0 0 .4 0"/><feOffset dx="10.422391857506362" dy="10.422391857506362" in="blurOut2" result="blurOut3"/><feBlend in="SourceGraphic" in2="blurOut3" mode="normal"/></filter></defs><g><!--MD5=[85bae912d113bb0b86a623a745020199]
class Home--><rect fill="#FEFECE" filter="url(#f1largi9jh8en2)" height="215.2265" id="Home" style="stroke: #A80036; stroke-width: 3.908396946564886;" width="211.0534" x="1126.9211" y="320.4885"/><text fill="#000000" font-family="sans-serif" font-size="31.2672" lengthAdjust="spacingAndGlyphs" textLength="88.5903" x="1188.1527" y="365.9746">Home</text><line style="stroke: #A80036; stroke-width: 3.908396946564886;" x1="1129.5267" x2="1335.369" y1="385.8728" y2="385.8728"/><text fill="#000000" font-family="sans-serif" font-size="28.6616" lengthAdjust="spacingAndGlyphs" textLength="179.7863" x="1142.5547" y="426.0483">Why important</text><text fill="#000000" font-family="sans-serif" font-size="28.6616" lengthAdjust="spacingAndGlyphs" textLength="153.7303" x="1142.5547" y="462.0992">What we do</text><text fill="#000000" font-family="sans-serif" font-size="28.6616" lengthAdjust="spacingAndGlyphs" textLength="169.3639" x="1142.5547" y="498.1501">How we do it</text><line style="stroke: #A80036; stroke-width: 3.908396946564886;" x1="1129.5267" x2="1335.369" y1="514.8702" y2="514.8702"/><!--MD5=[4b1bbb36bf22db452d2f18c9a96e40ec]
class Species--><rect fill="#FEFECE" filter="url(#f1largi9jh8en2)" height="143.1247" id="Species" style="stroke: #A80036; stroke-width: 3.908396946564886;" width="265.771" x="648.7939" y="20.8448"/><text fill="#000000" font-family="sans-serif" font-size="31.2672" lengthAdjust="spacingAndGlyphs" textLength="117.2519" x="723.0534" y="66.3308">Species</text><line style="stroke: #A80036; stroke-width: 3.908396946564886;" x1="651.3995" x2="911.9593" y1="86.229" y2="86.229"/><text fill="#000000" font-family="sans-serif" font-size="28.6616" lengthAdjust="spacingAndGlyphs" textLength="234.5038" x="664.4275" y="126.4046">Profiles of species</text><line style="stroke: #A80036; stroke-width: 3.908396946564886;" x1="651.3995" x2="911.9593" y1="143.1247" y2="143.1247"/><!--MD5=[4034599964776293c58b00793c120f39]
class Training--><rect fill="#FEFECE" filter="url(#f1largi9jh8en2)" height="143.1247" id="Training" style="stroke: #A80036; stroke-width: 3.908396946564886;" width="263.1654" x="694.3919" y="1354.9109"/><text fill="#000000" font-family="sans-serif" font-size="31.2672" lengthAdjust="spacingAndGlyphs" textLength="117.2519" x="767.3486" y="1400.3969">Training</text><line style="stroke: #A80036; stroke-width: 3.908396946564886;" x1="696.9975" x2="954.9517" y1="1420.2952" y2="1420.2952"/><text fill="#000000" font-family="sans-serif" font-size="28.6616" lengthAdjust="spacingAndGlyphs" textLength="231.8982" x="710.0254" y="1460.4707">Identification game</text><line style="stroke: #A80036; stroke-width: 3.908396946564886;" x1="696.9975" x2="954.9517" y1="1477.1908" y2="1477.1908"/><!--MD5=[2ac18e450f834edecc7b1595539f49fe]
class Creel--><rect fill="#FEFECE" filter="url(#f1largi9jh8en2)" height="143.1247" id="Creel" style="stroke: #A80036; stroke-width: 3.908396946564886;" width="435.1349" x="676.1527" y="698.3003"/><text fill="#000000" font-family="sans-serif" font-size="31.2672" lengthAdjust="spacingAndGlyphs" textLength="78.1679" x="854.6361" y="743.7863">Creel</text><line style="stroke: #A80036; stroke-width: 3.908396946564886;" x1="678.7583" x2="1108.6819" y1="763.6845" y2="763.6845"/><text fill="#000000" font-family="sans-serif" font-size="28.6616" lengthAdjust="spacingAndGlyphs" textLength="403.8677" x="691.7863" y="803.8601">Community submitted catch data</text><line style="stroke: #A80036; stroke-width: 3.908396946564886;" x1="678.7583" x2="1108.6819" y1="820.5802" y2="820.5802"/><!--MD5=[71399f3ba5b31d6aa8714b237b12f17c]
class Fishing--><rect fill="#FEFECE" filter="url(#f1largi9jh8en2)" height="143.1247" id="Fishing" style="stroke: #A80036; stroke-width: 3.908396946564886;" width="463.7964" x="1412.2341" y="698.3003"/><text fill="#000000" font-family="sans-serif" font-size="31.2672" lengthAdjust="spacingAndGlyphs" textLength="106.8295" x="1590.7176" y="743.7863">Fishing</text><line style="stroke: #A80036; stroke-width: 3.908396946564886;" x1="1414.8397" x2="1873.4249" y1="763.6845" y2="763.6845"/><text fill="#000000" font-family="sans-serif" font-size="28.6616" lengthAdjust="spacingAndGlyphs" textLength="432.5293" x="1427.8677" y="803.8601">Safe gear, catching, and releasing</text><line style="stroke: #A80036; stroke-width: 3.908396946564886;" x1="1414.8397" x2="1873.4249" y1="820.5802" y2="820.5802"/><path d="M235.8066,58.626 L235.8066,127.2875 A0,0 0 0 0 235.8066,127.2875 L556.2952,127.2875 A0,0 0 0 0 556.2952,127.2875 L556.2952,105.5267 L647.9653,92.4987 L556.2952,84.6819 L556.2952,84.6819 L530.2392,58.626 L235.8066,58.626 A0,0 0 0 0 235.8066,58.626 " fill="#FBFB77" filter="url(#f1largi9jh8en2)" style="stroke: #A80036; stroke-width: 2.6055979643765905;"/><path d="M530.2392,58.626 L530.2392,84.6819 L556.2952,84.6819 L530.2392,58.626 " fill="#FBFB77" style="stroke: #A80036; stroke-width: 2.6055979643765905;"/><text fill="#000000" font-family="sans-serif" font-size="33.8728" lengthAdjust="spacingAndGlyphs" textLength="265.771" x="251.4402" y="106.8168">fishwatch.gov API</text><path d="M1050.056,1370.5445 L1050.056,1416.1425 L957.7449,1426.5649 L1050.056,1436.9873 L1050.056,1481.8117 A0,0 0 0 0 1050.056,1481.8117 L1586.8092,1481.8117 A0,0 0 0 0 1586.8092,1481.8117 L1586.8092,1396.6005 L1560.7532,1370.5445 L1050.056,1370.5445 A0,0 0 0 0 1050.056,1370.5445 " fill="#FBFB77" filter="url(#f1largi9jh8en2)" style="stroke: #A80036; stroke-width: 2.6055979643765905;"/><path d="M1560.7532,1370.5445 L1560.7532,1396.6005 L1586.8092,1396.6005 L1560.7532,1370.5445 " fill="#FBFB77" style="stroke: #A80036; stroke-width: 2.6055979643765905;"/><text fill="#000000" font-family="sans-serif" font-size="33.8728" lengthAdjust="spacingAndGlyphs" textLength="482.0356" x="1065.6896" y="1418.7354">elaborate on msyphus.github.io/</text><text fill="#000000" font-family="sans-serif" font-size="33.8728" lengthAdjust="spacingAndGlyphs" textLength="143.3079" x="1065.6896" y="1461.341">fish-finder</text><path d="M491.1552,351.7557 L491.1552,505.6285 A0,0 0 0 0 491.1552,505.6285 L781.9321,505.6285 L866.6662,697.5498 L802.7769,505.6285 L1035.7252,505.6285 A0,0 0 0 0 1035.7252,505.6285 L1035.7252,377.8117 L1009.6692,351.7557 L491.1552,351.7557 A0,0 0 0 0 491.1552,351.7557 " fill="#FBFB77" filter="url(#f1largi9jh8en2)" style="stroke: #A80036; stroke-width: 2.6055979643765905;"/><path d="M1009.6692,351.7557 L1009.6692,377.8117 L1035.7252,377.8117 L1009.6692,351.7557 " fill="#FBFB77" style="stroke: #A80036; stroke-width: 2.6055979643765905;"/><text fill="#000000" font-family="sans-serif" font-size="33.8728" lengthAdjust="spacingAndGlyphs" textLength="257.9542" x="506.7888" y="399.9466">Database CRUD.</text><text fill="#000000" font-family="sans-serif" font-size="33.8728" font-weight="bold" lengthAdjust="spacingAndGlyphs" textLength="190.2087" x="785.5878" y="399.9466">Future Dev:</text><text fill="#000000" font-family="sans-serif" font-size="33.8728" lengthAdjust="spacingAndGlyphs" textLength="0" x="996.6412" y="399.9466"/><text fill="#000000" font-family="sans-serif" font-size="33.8728" lengthAdjust="spacingAndGlyphs" textLength="429.9237" x="506.7888" y="442.5522">Fisheries Agency access for</text><text fill="#000000" font-family="sans-serif" font-size="33.8728" lengthAdjust="spacingAndGlyphs" textLength="166.7583" x="506.7888" y="485.1578">monitoring.</text><path d="M1408.3257,1044.8448 L1408.3257,1156.112 A0,0 0 0 0 1408.3257,1156.112 L1879.9389,1156.112 A0,0 0 0 0 1879.9389,1156.112 L1879.9389,1070.9008 L1853.883,1044.8448 L1654.5547,1044.8448 L1644.1323,841.6316 L1633.7099,1044.8448 L1408.3257,1044.8448 A0,0 0 0 0 1408.3257,1044.8448 " fill="#FBFB77" filter="url(#f1largi9jh8en2)" style="stroke: #A80036; stroke-width: 2.6055979643765905;"/><path d="M1853.883,1044.8448 L1853.883,1070.9008 L1879.9389,1070.9008 L1853.883,1044.8448 " fill="#FBFB77" style="stroke: #A80036; stroke-width: 2.6055979643765905;"/><text fill="#000000" font-family="sans-serif" font-size="33.8728" font-weight="bold" lengthAdjust="spacingAndGlyphs" textLength="218.8702" x="1423.9593" y="1093.0356">Nice to Have:</text><text fill="#000000" font-family="sans-serif" font-size="33.8728" lengthAdjust="spacingAndGlyphs" textLength="177.1807" x="1653.2519" y="1093.0356">Make game</text><text fill="#000000" font-family="sans-serif" font-size="33.8728" lengthAdjust="spacingAndGlyphs" textLength="291.827" x="1423.9593" y="1135.6412">instead of info page</text><path d="M1429.1705,394.7481 L1429.1705,463.4097 A0,0 0 0 0 1429.1705,463.4097 L1697.3152,463.4097 L1658.6403,698.0371 L1718.16,463.4097 L1999.7964,463.4097 A0,0 0 0 0 1999.7964,463.4097 L1999.7964,420.8041 L1973.7405,394.7481 L1429.1705,394.7481 A0,0 0 0 0 1429.1705,394.7481 " fill="#FBFB77" filter="url(#f1largi9jh8en2)" style="stroke: #A80036; stroke-width: 2.6055979643765905;"/><path d="M1973.7405,394.7481 L1973.7405,420.8041 L1999.7964,420.8041 L1973.7405,394.7481 " fill="#FBFB77" style="stroke: #A80036; stroke-width: 2.6055979643765905;"/><text fill="#000000" font-family="sans-serif" font-size="33.8728" lengthAdjust="spacingAndGlyphs" textLength="515.9084" x="1444.8041" y="442.9389">External links; maybe scrape data</text><path d="M15.6336,693.0891 L15.6336,846.9618 L583.6539,846.9618 L583.6539,719.145 L557.598,693.0891 L15.6336,693.0891 " fill="#FBFB77" filter="url(#f1largi9jh8en2)" style="stroke: #A80036; stroke-width: 2.6055979643765905;"/><path d="M557.598,693.0891 L557.598,719.145 L583.6539,719.145 L557.598,693.0891 " fill="#FBFB77" style="stroke: #A80036; stroke-width: 2.6055979643765905;"/><text fill="#000000" font-family="sans-serif" font-size="33.8728" font-weight="bold" lengthAdjust="spacingAndGlyphs" textLength="190.2087" x="31.2672" y="741.2799">Future Dev:</text><text fill="#000000" font-family="sans-serif" font-size="33.8728" lengthAdjust="spacingAndGlyphs" textLength="291.827" x="242.3206" y="741.2799">Could save species</text><text fill="#000000" font-family="sans-serif" font-size="33.8728" lengthAdjust="spacingAndGlyphs" textLength="484.6412" x="31.2672" y="783.8855">from profiles list that are used to</text><text fill="#000000" font-family="sans-serif" font-size="33.8728" lengthAdjust="spacingAndGlyphs" textLength="278.799" x="31.2672" y="826.4911">populate the game</text><path d="M539.3588,1003.1552 L539.3588,1199.6336 L1112.5903,1199.6336 L1112.5903,1029.2112 L1086.5344,1003.1552 L539.3588,1003.1552 " fill="#FBFB77" filter="url(#f1largi9jh8en2)" style="stroke: #A80036; stroke-width: 2.6055979643765905;"/><path d="M1086.5344,1003.1552 L1086.5344,1029.2112 L1112.5903,1029.2112 L1086.5344,1003.1552 " fill="#FBFB77" style="stroke: #A80036; stroke-width: 2.6055979643765905;"/><text fill="#000000" font-family="sans-serif" font-size="33.8728" font-weight="bold" lengthAdjust="spacingAndGlyphs" textLength="190.2087" x="554.9924" y="1051.3461">Future Dev:</text><text fill="#000000" font-family="sans-serif" font-size="33.8728" lengthAdjust="spacingAndGlyphs" textLength="297.0382" x="766.0458" y="1051.3461">Could use the Creel</text><text fill="#000000" font-family="sans-serif" font-size="33.8728" lengthAdjust="spacingAndGlyphs" textLength="440.3461" x="554.9924" y="1093.9517">data to populate the game so</text><text fill="#000000" font-family="sans-serif" font-size="33.8728" lengthAdjust="spacingAndGlyphs" textLength="474.2188" x="554.9924" y="1136.5573">players are practicing on what's</text><text fill="#000000" font-family="sans-serif" font-size="33.8728" lengthAdjust="spacingAndGlyphs" textLength="362.1781" x="554.9924" y="1179.1628">most likely to be caught</text><!--MD5=[ae1802651284edcf6c8e312cfcd4cecd]
link Home to Creel--><path d="M1126.202,536.6542 C1077.1386,585.3398 1019.831,642.2095 974.3894,687.302 " fill="none" id="Home-&gt;Creel" style="stroke: #A80036; stroke-width: 2.6055979643765905;"/><polygon fill="#A80036" points="964.2901,697.3205,988.2788,688.2052,973.5394,688.1457,973.599,673.4063,964.2901,697.3205" style="stroke: #A80036; stroke-width: 2.6055979643765905;"/><!--MD5=[9a968ccd33a80003102e713cd2091dcb]
reverse link Species to Home--><path d="M887.5162,172.798 C959.4437,225.6005 1054.2301,295.183 1126.2358,348.0454 " fill="none" id="Species&lt;-Home" style="stroke: #A80036; stroke-width: 2.6055979643765905;"/><polygon fill="#A80036" points="876.174,164.4732,888.9043,186.7551,886.674,172.1853,901.2438,169.9551,876.174,164.4732" style="stroke: #A80036; stroke-width: 2.6055979643765905;"/><!--MD5=[e91e2dba18875ad9718e74e631c219da]
reverse link Training to Home--><path d="M969.986,1361.9408 C1038.2891,1324.7902 1114.1355,1270.6248 1156.8855,1198.5751 C1280.1824,990.776 1267.1752,694.53 1248.7797,537.8658 " fill="none" id="Training&lt;-Home" style="stroke: #A80036; stroke-width: 2.6055979643765905;"/><polygon fill="#A80036" points="958.2165,1368.2177,983.8127,1366.3791,969.7119,1362.0872,974.0038,1347.9864,958.2165,1368.2177" style="stroke: #A80036; stroke-width: 2.6055979643765905;"/><!--MD5=[2578997cf769dbeb96394945ce725117]
link Home to Fishing--><path d="M1338.467,517.787 C1403.3282,570.7432 1485.6364,637.9442 1548.4991,689.2666 " fill="none" id="Home-&gt;Fishing" style="stroke: #A80036; stroke-width: 2.6055979643765905;"/><polygon fill="#A80036" points="1559.2055,698.0084,1547.635,675.1027,1549.1149,689.7677,1534.4499,691.2476,1559.2055,698.0084" style="stroke: #A80036; stroke-width: 2.6055979643765905;"/><!--MD5=[37fadab8f759c3267bfa3c70a715e965]
link Species to idea1--><path d="M648.5125,157.2061 C579.287,195.5267 498.3467,250.7393 445.5573,320.4885 C364.346,427.7897 327.2162,582.2547 311.0745,678.6098 " fill="none" id="Species-&gt;idea1" style="stroke: #A80036; stroke-width: 2.6055979643765905; stroke-dasharray: 7.0,7.0;"/><polygon fill="#A80036" points="308.8415,692.3908,322.8756,670.9061,310.9223,679.53,302.2984,667.5768,308.8415,692.3908" style="stroke: #A80036; stroke-width: 2.6055979643765905;"/><!--MD5=[f9d4abfc90c486eb5fdc8ecacdd5071a]
link idea1 to Training--><path d="M319.6938,847.1737 C346.9849,938.0309 402.9453,1092.4647 492.458,1198.5751 C544.6351,1260.4267 617.8446,1312.4368 682.3879,1350.854 " fill="none" id="idea1-&gt;Training" style="stroke: #A80036; stroke-width: 2.6055979643765905; stroke-dasharray: 7.0,7.0;"/><polygon fill="#A80036" points="694.3293,1357.8686,679.3841,1337.0074,683.0947,1351.2722,668.8299,1354.9828,694.3293,1357.8686" style="stroke: #A80036; stroke-width: 2.6055979643765905;"/><!--MD5=[2c416699237abf902950bc940eba1dac]
link Creel to idea2--><path d="M879.3528,841.6316 C870.4782,884.3035 858.8911,940.0059 848.7814,988.6056 " fill="none" id="Creel-&gt;idea2" style="stroke: #A80036; stroke-width: 2.6055979643765905; stroke-dasharray: 7.0,7.0;"/><polygon fill="#A80036" points="845.9751,1002.1078,860.951,981.2687,848.626,989.3523,840.5423,977.0273,845.9751,1002.1078" style="stroke: #A80036; stroke-width: 2.6055979643765905;"/><!--MD5=[c3cff43c4b64ed7e0ebef796f135383e]
link idea2 to Training--><path d="M825.9746,1198.7601 C825.9746,1243.9086 825.9746,1297.3376 825.9746,1340.8209 " fill="none" id="idea2-&gt;Training" style="stroke: #A80036; stroke-width: 2.6055979643765905; stroke-dasharray: 7.0,7.0;"/><polygon fill="#A80036" points="825.9746,1353.9763,836.3969,1330.5259,825.9746,1340.9483,815.5522,1330.5259,825.9746,1353.9763" style="stroke: #A80036; stroke-width: 2.6055979643765905;"/><!--MD5=[cae3a3c4735ed4fdd5b63de8a0c4cde7]
@startuml "processFlow"

scale 2048 width
skinparam wrapwidth 200
skinparam maxMessageSize 500
skinparam backgroundColor #FFFFFF

class Home {
    Why important
    What we do
    How we do it
}

class Species {
    Profiles of species
}


class Training {
    Identification game
}


class Creel {
    Community submitted catch data
}


class Fishing {
    Safe gear, catching, and releasing
}

hide circle


Home- ->Creel
Species<- -Home
Training<- -Home
Home- ->Fishing

note left of Species: fishwatch.gov API
note right of Training: elaborate on msyphus.github.io/fish-finder
note top of Creel: Database CRUD.  <b>Future Dev:</b>  Fisheries Agency access for monitoring.
note bottom of Fishing: <b>Nice to Have:</b> Make game instead of info page
note "External links; maybe scrape data" as data
note "<b>Future Dev:</b>  Could save species from profiles list that are used to populate the game" as idea1
note "<b>Future Dev:</b>  Could use the Creel data to populate the game so players are practicing on what's most likely to be caught" as idea2
data .. Fishing
Species ..> idea1
idea1 ..> Training
Creel ..> idea2
idea2 ..> Training


@enduml

PlantUML version 1.2020.10(Sun May 17 03:35:57 MDT 2020)
(GPL source distribution)
Java Runtime: OpenJDK Runtime Environment
JVM: OpenJDK 64-Bit Server VM
Java Version: 14.0.1+7
Operating System: Windows 10
Default Encoding: Cp1252
Language: en
Country: US
--></g></svg>