<?xml version="1.0" encoding="UTF-8" standalone="no"?><svg xmlns="http://www.w3.org/2000/svg" xmlns:xlink="http://www.w3.org/1999/xlink" contentScriptType="application/ecmascript" contentStyleType="text/css" height="1121.1679px" preserveAspectRatio="none" style="width:2027px;height:1121px;" version="1.1" viewBox="0 0 2027 1121" width="2027.0715px" zoomAndPan="magnify"><defs><filter height="300%" id="fbxj7nmon53q7" width="300%" x="-1" y="-1"><feGaussianBlur result="blurOut" stdDeviation="5.97956204379562"/><feColorMatrix in="blurOut" result="blurOut2" type="matrix" values="0 0 0 0 0 0 0 0 0 0 0 0 0 0 0 0 0 0 .4 0"/><feOffset dx="11.95912408759124" dy="11.95912408759124" in="blurOut2" result="blurOut3"/><feBlend in="SourceGraphic" in2="blurOut3" mode="normal"/></filter></defs><g><text fill="#000000" font-family="sans-serif" font-size="53.8161" lengthAdjust="spacingAndGlyphs" textLength="983.638" x="532.181" y="55.8657">Rockfish Conservation App Process Flow</text><!--MD5=[85bae912d113bb0b86a623a745020199]
class Home--><rect fill="#FEFECE" filter="url(#fbxj7nmon53q7)" height="267.6088" id="Home" style="stroke: #A80036; stroke-width: 4.484671532846715;" width="242.1723" x="792.292" y="456.362"/><ellipse cx="857.3197" cy="504.1985" fill="#ADD1B2" rx="32.8876" ry="32.8876" style="stroke: #A80036; stroke-width: 2.98978102189781;"/><path d="M865.5883,491.8657 Q866.0555,491.2117 866.6161,490.8847 Q867.1766,490.5577 867.8307,490.5577 Q868.9518,490.5577 869.6526,491.3518 Q870.3533,492.0993 870.3533,493.9212 L870.3533,498.2657 Q870.3533,500.0876 869.6526,500.8818 Q868.9518,501.6759 867.8307,501.6759 Q866.8029,501.6759 866.1956,501.0686 Q865.5883,500.508 865.2613,498.9664 Q865.1212,497.892 864.5606,497.3314 Q863.5796,496.2102 861.7577,495.5562 Q859.9358,494.9022 858.0672,494.9022 Q855.7781,494.9022 853.8628,495.8832 Q851.9942,496.8642 850.4993,499.1066 Q849.0511,501.3489 849.0511,504.4321 L849.0511,507.7022 Q849.0511,511.3927 851.7139,513.8686 Q854.3766,516.2978 859.1416,516.2978 Q861.9445,516.2978 863.9066,515.5504 Q865.0745,515.0832 866.3358,513.7752 Q867.1299,512.981 867.5504,512.7474 Q868.0175,512.5139 868.6248,512.5139 Q869.6058,512.5139 870.3533,513.308 Q871.1474,514.0555 871.1474,515.0832 Q871.1474,516.1109 870.1197,517.3255 Q868.6248,519.054 866.2423,520.035 Q863.019,521.3898 859.1416,521.3898 Q854.6102,521.3898 851.0131,519.5212 Q848.0701,518.0263 846.0146,514.8496 Q843.9591,511.6263 843.9591,507.7956 L843.9591,504.3387 Q843.9591,500.3679 845.781,496.9577 Q847.6496,493.5007 850.9197,491.6788 Q854.1898,489.8102 857.8803,489.8102 Q860.0759,489.8102 861.9912,490.3241 Q863.9533,490.7912 865.5883,491.8657 Z "/><text fill="#000000" font-family="sans-serif" font-size="35.8774" lengthAdjust="spacingAndGlyphs" textLength="101.6526" x="903.6613" y="518.8788">Home</text><line style="stroke: #A80036; stroke-width: 4.484671532846715;" x1="795.2818" x2="1031.4745" y1="552.035" y2="552.035"/><text fill="#000000" font-family="sans-serif" font-size="32.8876" lengthAdjust="spacingAndGlyphs" textLength="206.2949" x="810.2307" y="598.1343">Why important</text><text fill="#000000" font-family="sans-serif" font-size="32.8876" lengthAdjust="spacingAndGlyphs" textLength="176.3971" x="810.2307" y="639.5007">What we do</text><text fill="#000000" font-family="sans-serif" font-size="32.8876" lengthAdjust="spacingAndGlyphs" textLength="194.3358" x="810.2307" y="680.8672">How we do it</text><line style="stroke: #A80036; stroke-width: 4.484671532846715;" x1="795.2818" x2="1031.4745" y1="700.0526" y2="700.0526"/><!--MD5=[4b1bbb36bf22db452d2f18c9a96e40ec]
class Species--><rect fill="#FEFECE" filter="url(#fbxj7nmon53q7)" height="184.8759" id="Species" style="stroke: #A80036; stroke-width: 4.484671532846715;" width="304.9577" x="557.5942" y="91.6088"/><ellipse cx="636.0759" cy="139.4453" fill="#ADD1B2" rx="32.8876" ry="32.8876" style="stroke: #A80036; stroke-width: 2.98978102189781;"/><path d="M644.3445,127.1124 Q644.8117,126.4584 645.3723,126.1314 Q645.9328,125.8044 646.5869,125.8044 Q647.708,125.8044 648.4088,126.5985 Q649.1095,127.346 649.1095,129.1679 L649.1095,133.5124 Q649.1095,135.3343 648.4088,136.1285 Q647.708,136.9226 646.5869,136.9226 Q645.5591,136.9226 644.9518,136.3153 Q644.3445,135.7547 644.0175,134.2131 Q643.8774,133.1387 643.3168,132.5781 Q642.3358,131.4569 640.5139,130.8029 Q638.692,130.1489 636.8234,130.1489 Q634.5343,130.1489 632.619,131.1299 Q630.7504,132.1109 629.2555,134.3533 Q627.8073,136.5956 627.8073,139.6788 L627.8073,142.9489 Q627.8073,146.6394 630.4701,149.1153 Q633.1328,151.5445 637.8978,151.5445 Q640.7007,151.5445 642.6628,150.7971 Q643.8307,150.3299 645.092,149.0219 Q645.8861,148.2277 646.3066,147.9942 Q646.7737,147.7606 647.381,147.7606 Q648.362,147.7606 649.1095,148.5547 Q649.9036,149.3022 649.9036,150.3299 Q649.9036,151.3577 648.8759,152.5723 Q647.381,154.3007 644.9985,155.2818 Q641.7752,156.6365 637.8978,156.6365 Q633.3664,156.6365 629.7693,154.7679 Q626.8263,153.273 624.7708,150.0964 Q622.7153,146.873 622.7153,143.0423 L622.7153,139.5854 Q622.7153,135.6146 624.5372,132.2044 Q626.4058,128.7474 629.6759,126.9255 Q632.946,125.0569 636.6365,125.0569 Q638.8321,125.0569 640.7474,125.5708 Q642.7095,126.038 644.3445,127.1124 Z "/><text fill="#000000" font-family="sans-serif" font-size="35.8774" lengthAdjust="spacingAndGlyphs" textLength="134.5401" x="685.4073" y="154.1255">Species</text><line style="stroke: #A80036; stroke-width: 4.484671532846715;" x1="560.5839" x2="859.562" y1="187.2818" y2="187.2818"/><text fill="#000000" font-family="sans-serif" font-size="32.8876" lengthAdjust="spacingAndGlyphs" textLength="269.0803" x="575.5328" y="233.381">Profiles of species</text><line style="stroke: #A80036; stroke-width: 4.484671532846715;" x1="560.5839" x2="859.562" y1="252.5664" y2="252.5664"/><!--MD5=[4034599964776293c58b00793c120f39]
class Training--><rect fill="#FEFECE" filter="url(#fbxj7nmon53q7)" height="184.8759" id="Training" style="stroke: #A80036; stroke-width: 4.484671532846715;" width="301.9679" x="968.6891" y="91.6088"/><ellipse cx="1045.8254" cy="139.4453" fill="#ADD1B2" rx="32.8876" ry="32.8876" style="stroke: #A80036; stroke-width: 2.98978102189781;"/><path d="M1054.094,127.1124 Q1054.5612,126.4584 1055.1218,126.1314 Q1055.6823,125.8044 1056.3364,125.8044 Q1057.4575,125.8044 1058.1582,126.5985 Q1058.859,127.346 1058.859,129.1679 L1058.859,133.5124 Q1058.859,135.3343 1058.1582,136.1285 Q1057.4575,136.9226 1056.3364,136.9226 Q1055.3086,136.9226 1054.7013,136.3153 Q1054.094,135.7547 1053.767,134.2131 Q1053.6269,133.1387 1053.0663,132.5781 Q1052.0853,131.4569 1050.2634,130.8029 Q1048.4415,130.1489 1046.5728,130.1489 Q1044.2838,130.1489 1042.3685,131.1299 Q1040.4999,132.1109 1039.005,134.3533 Q1037.5568,136.5956 1037.5568,139.6788 L1037.5568,142.9489 Q1037.5568,146.6394 1040.2196,149.1153 Q1042.8823,151.5445 1047.6473,151.5445 Q1050.4502,151.5445 1052.4123,150.7971 Q1053.5801,150.3299 1054.8415,149.0219 Q1055.6356,148.2277 1056.0561,147.9942 Q1056.5232,147.7606 1057.1305,147.7606 Q1058.1115,147.7606 1058.859,148.5547 Q1059.6531,149.3022 1059.6531,150.3299 Q1059.6531,151.3577 1058.6254,152.5723 Q1057.1305,154.3007 1054.748,155.2818 Q1051.5247,156.6365 1047.6473,156.6365 Q1043.1159,156.6365 1039.5188,154.7679 Q1036.5758,153.273 1034.5203,150.0964 Q1032.4648,146.873 1032.4648,143.0423 L1032.4648,139.5854 Q1032.4648,135.6146 1034.2867,132.2044 Q1036.1553,128.7474 1039.4254,126.9255 Q1042.6955,125.0569 1046.386,125.0569 Q1048.5816,125.0569 1050.4969,125.5708 Q1052.459,126.038 1054.094,127.1124 Z "/><text fill="#000000" font-family="sans-serif" font-size="35.8774" lengthAdjust="spacingAndGlyphs" textLength="134.5401" x="1094.8578" y="154.1255">Training</text><line style="stroke: #A80036; stroke-width: 4.484671532846715;" x1="971.6788" x2="1267.6672" y1="187.2818" y2="187.2818"/><text fill="#000000" font-family="sans-serif" font-size="32.8876" lengthAdjust="spacingAndGlyphs" textLength="266.0905" x="986.6277" y="233.381">Identification game</text><line style="stroke: #A80036; stroke-width: 4.484671532846715;" x1="971.6788" x2="1267.6672" y1="252.5664" y2="252.5664"/><!--MD5=[2ac18e450f834edecc7b1595539f49fe]
class Creel--><rect fill="#FEFECE" filter="url(#fbxj7nmon53q7)" height="184.8759" id="Creel" style="stroke: #A80036; stroke-width: 4.484671532846715;" width="499.2934" x="17.9387" y="904.8292"/><ellipse cx="210.0321" cy="952.6657" fill="#ADD1B2" rx="32.8876" ry="32.8876" style="stroke: #A80036; stroke-width: 2.98978102189781;"/><path d="M218.3007,940.3328 Q218.7679,939.6788 219.3285,939.3518 Q219.8891,939.0248 220.5431,939.0248 Q221.6642,939.0248 222.365,939.819 Q223.0657,940.5664 223.0657,942.3883 L223.0657,946.7328 Q223.0657,948.5547 222.365,949.3489 Q221.6642,950.1431 220.5431,950.1431 Q219.5153,950.1431 218.908,949.5358 Q218.3007,948.9752 217.9737,947.4336 Q217.8336,946.3591 217.273,945.7985 Q216.292,944.6774 214.4701,944.0234 Q212.6482,943.3693 210.7796,943.3693 Q208.4905,943.3693 206.5752,944.3504 Q204.7066,945.3314 203.2117,947.5737 Q201.7635,949.8161 201.7635,952.8993 L201.7635,956.1693 Q201.7635,959.8599 204.4263,962.3358 Q207.0891,964.765 211.854,964.765 Q214.6569,964.765 216.619,964.0175 Q217.7869,963.5504 219.0482,962.2423 Q219.8423,961.4482 220.2628,961.2146 Q220.7299,960.981 221.3372,960.981 Q222.3182,960.981 223.0657,961.7752 Q223.8599,962.5226 223.8599,963.5504 Q223.8599,964.5781 222.8321,965.7927 Q221.3372,967.5212 218.9547,968.5022 Q215.7314,969.8569 211.854,969.8569 Q207.3226,969.8569 203.7255,967.9883 Q200.7825,966.4934 198.727,963.3168 Q196.6715,960.0934 196.6715,956.2628 L196.6715,952.8058 Q196.6715,948.835 198.4934,945.4248 Q200.362,941.9679 203.6321,940.146 Q206.9022,938.2774 210.5927,938.2774 Q212.7883,938.2774 214.7036,938.7912 Q216.6657,939.2584 218.3007,940.3328 Z "/><text fill="#000000" font-family="sans-serif" font-size="35.8774" lengthAdjust="spacingAndGlyphs" textLength="89.6934" x="271.3226" y="967.346">Creel</text><line style="stroke: #A80036; stroke-width: 4.484671532846715;" x1="20.9285" x2="514.2423" y1="1000.5022" y2="1000.5022"/><text fill="#000000" font-family="sans-serif" font-size="32.8876" lengthAdjust="spacingAndGlyphs" textLength="463.4161" x="35.8774" y="1046.6015">Community submitted catch data</text><line style="stroke: #A80036; stroke-width: 4.484671532846715;" x1="20.9285" x2="514.2423" y1="1065.7869" y2="1065.7869"/><!--MD5=[71399f3ba5b31d6aa8714b237b12f17c]
class Fishing--><rect fill="#FEFECE" filter="url(#fbxj7nmon53q7)" height="184.8759" id="Fishing" style="stroke: #A80036; stroke-width: 4.484671532846715;" width="532.181" x="1308.0292" y="904.8292"/><ellipse cx="1500.1226" cy="952.6657" fill="#ADD1B2" rx="32.8876" ry="32.8876" style="stroke: #A80036; stroke-width: 2.98978102189781;"/><path d="M1508.3912,940.3328 Q1508.8584,939.6788 1509.419,939.3518 Q1509.9796,939.0248 1510.6336,939.0248 Q1511.7547,939.0248 1512.4555,939.819 Q1513.1562,940.5664 1513.1562,942.3883 L1513.1562,946.7328 Q1513.1562,948.5547 1512.4555,949.3489 Q1511.7547,950.1431 1510.6336,950.1431 Q1509.6058,950.1431 1508.9985,949.5358 Q1508.3912,948.9752 1508.0642,947.4336 Q1507.9241,946.3591 1507.3635,945.7985 Q1506.3825,944.6774 1504.5606,944.0234 Q1502.7387,943.3693 1500.8701,943.3693 Q1498.581,943.3693 1496.6657,944.3504 Q1494.7971,945.3314 1493.3022,947.5737 Q1491.854,949.8161 1491.854,952.8993 L1491.854,956.1693 Q1491.854,959.8599 1494.5168,962.3358 Q1497.1796,964.765 1501.9445,964.765 Q1504.7474,964.765 1506.7095,964.0175 Q1507.8774,963.5504 1509.1387,962.2423 Q1509.9328,961.4482 1510.3533,961.2146 Q1510.8204,960.981 1511.4277,960.981 Q1512.4088,960.981 1513.1562,961.7752 Q1513.9504,962.5226 1513.9504,963.5504 Q1513.9504,964.5781 1512.9226,965.7927 Q1511.4277,967.5212 1509.0453,968.5022 Q1505.8219,969.8569 1501.9445,969.8569 Q1497.4131,969.8569 1493.8161,967.9883 Q1490.873,966.4934 1488.8175,963.3168 Q1486.762,960.0934 1486.762,956.2628 L1486.762,952.8058 Q1486.762,948.835 1488.5839,945.4248 Q1490.4526,941.9679 1493.7226,940.146 Q1496.9927,938.2774 1500.6832,938.2774 Q1502.8788,938.2774 1504.7942,938.7912 Q1506.7562,939.2584 1508.3912,940.3328 Z "/><text fill="#000000" font-family="sans-serif" font-size="35.8774" lengthAdjust="spacingAndGlyphs" textLength="122.581" x="1561.4131" y="967.346">Fishing</text><line style="stroke: #A80036; stroke-width: 4.484671532846715;" x1="1311.019" x2="1837.2204" y1="1000.5022" y2="1000.5022"/><text fill="#000000" font-family="sans-serif" font-size="32.8876" lengthAdjust="spacingAndGlyphs" textLength="496.3036" x="1325.9679" y="1046.6015">Safe gear, catching, and releasing</text><line style="stroke: #A80036; stroke-width: 4.484671532846715;" x1="1311.019" x2="1837.2204" y1="1065.7869" y2="1065.7869"/><!--MD5=[1233590a41673a71ec255e6218895848]
class Regulations--><rect fill="#FEFECE" filter="url(#fbxj7nmon53q7)" height="184.8759" id="Regulations" style="stroke: #A80036; stroke-width: 4.484671532846715;" width="580.0175" x="623.3693" y="904.8292"/><ellipse cx="800.5139" cy="952.6657" fill="#ADD1B2" rx="32.8876" ry="32.8876" style="stroke: #A80036; stroke-width: 2.98978102189781;"/><path d="M808.7825,940.3328 Q809.2496,939.6788 809.8102,939.3518 Q810.3708,939.0248 811.0248,939.0248 Q812.146,939.0248 812.8467,939.819 Q813.5474,940.5664 813.5474,942.3883 L813.5474,946.7328 Q813.5474,948.5547 812.8467,949.3489 Q812.146,950.1431 811.0248,950.1431 Q809.9971,950.1431 809.3898,949.5358 Q808.7825,948.9752 808.4555,947.4336 Q808.3153,946.3591 807.7547,945.7985 Q806.7737,944.6774 804.9518,944.0234 Q803.1299,943.3693 801.2613,943.3693 Q798.9723,943.3693 797.0569,944.3504 Q795.1883,945.3314 793.6934,947.5737 Q792.2453,949.8161 792.2453,952.8993 L792.2453,956.1693 Q792.2453,959.8599 794.908,962.3358 Q797.5708,964.765 802.3358,964.765 Q805.1387,964.765 807.1007,964.0175 Q808.2686,963.5504 809.5299,962.2423 Q810.3241,961.4482 810.7445,961.2146 Q811.2117,960.981 811.819,960.981 Q812.8,960.981 813.5474,961.7752 Q814.3416,962.5226 814.3416,963.5504 Q814.3416,964.5781 813.3139,965.7927 Q811.819,967.5212 809.4365,968.5022 Q806.2131,969.8569 802.3358,969.8569 Q797.8044,969.8569 794.2073,967.9883 Q791.2642,966.4934 789.2088,963.3168 Q787.1533,960.0934 787.1533,956.2628 L787.1533,952.8058 Q787.1533,948.835 788.9752,945.4248 Q790.8438,941.9679 794.1139,940.146 Q797.3839,938.2774 801.0745,938.2774 Q803.2701,938.2774 805.1854,938.7912 Q807.1474,939.2584 808.7825,940.3328 Z "/><text fill="#000000" font-family="sans-serif" font-size="35.8774" lengthAdjust="spacingAndGlyphs" textLength="200.3153" x="861.8044" y="967.346">Regulations</text><line style="stroke: #A80036; stroke-width: 4.484671532846715;" x1="626.3591" x2="1200.3971" y1="1000.5022" y2="1000.5022"/><text fill="#000000" font-family="sans-serif" font-size="32.8876" lengthAdjust="spacingAndGlyphs" textLength="544.1401" x="641.308" y="1046.6015">How to get involved in making change</text><line style="stroke: #A80036; stroke-width: 4.484671532846715;" x1="626.3591" x2="1200.3971" y1="1065.7869" y2="1065.7869"/><path d="M106.1372,145.4248 L106.1372,224.2102 A0,0 0 0 0 106.1372,224.2102 L452.9518,224.2102 A0,0 0 0 0 452.9518,224.2102 L452.9518,199.2409 L556.7929,184.292 L452.9518,175.3226 L452.9518,175.3226 L423.054,145.4248 L106.1372,145.4248 A0,0 0 0 0 106.1372,145.4248 " fill="#FBFB77" filter="url(#fbxj7nmon53q7)" style="stroke: #A80036; stroke-width: 2.98978102189781;"/><path d="M423.054,145.4248 L423.054,175.3226 L452.9518,175.3226 L423.054,145.4248 " fill="#FBFB77" style="stroke: #A80036; stroke-width: 2.98978102189781;"/><text fill="#000000" font-family="sans-serif" font-size="38.8672" lengthAdjust="spacingAndGlyphs" textLength="284.0292" x="124.0759" y="200.7212">fishbase.org API</text><path d="M1376.7942,120.0117 L1376.7942,172.3328 L1270.8722,184.292 L1376.7942,196.2511 L1376.7942,247.6847 A0,0 0 0 0 1376.7942,247.6847 L1992.6891,247.6847 A0,0 0 0 0 1992.6891,247.6847 L1992.6891,149.9095 L1962.7912,120.0117 L1376.7942,120.0117 A0,0 0 0 0 1376.7942,120.0117 " fill="#FBFB77" filter="url(#fbxj7nmon53q7)" style="stroke: #A80036; stroke-width: 2.98978102189781;"/><path d="M1962.7912,120.0117 L1962.7912,149.9095 L1992.6891,149.9095 L1962.7912,120.0117 " fill="#FBFB77" style="stroke: #A80036; stroke-width: 2.98978102189781;"/><text fill="#000000" font-family="sans-serif" font-size="38.8672" lengthAdjust="spacingAndGlyphs" textLength="553.1095" x="1394.7328" y="175.308">elaborate on msyphus.github.io/</text><text fill="#000000" font-family="sans-serif" font-size="38.8672" lengthAdjust="spacingAndGlyphs" textLength="164.438" x="1394.7328" y="224.1956">fish-finder</text><path d="M94.1781,552.035 L94.1781,630.8204 A0,0 0 0 0 94.1781,630.8204 L255.6263,630.8204 L267.5854,904.8005 L279.5445,630.8204 L440.9927,630.8204 A0,0 0 0 0 440.9927,630.8204 L440.9927,581.9328 L411.0949,552.035 L94.1781,552.035 A0,0 0 0 0 94.1781,552.035 " fill="#FBFB77" filter="url(#fbxj7nmon53q7)" style="stroke: #A80036; stroke-width: 2.98978102189781;"/><path d="M411.0949,552.035 L411.0949,581.9328 L440.9927,581.9328 L411.0949,552.035 " fill="#FBFB77" style="stroke: #A80036; stroke-width: 2.98978102189781;"/><text fill="#000000" font-family="sans-serif" font-size="38.8672" lengthAdjust="spacingAndGlyphs" textLength="284.0292" x="112.1168" y="607.3314">Database CRUD</text><path d="M1192.9226,552.035 L1192.9226,630.8204 L1847.6847,630.8204 L1847.6847,581.9328 L1817.7869,552.035 L1192.9226,552.035 " fill="#FBFB77" filter="url(#fbxj7nmon53q7)" style="stroke: #A80036; stroke-width: 2.98978102189781;"/><path d="M1817.7869,552.035 L1817.7869,581.9328 L1847.6847,581.9328 L1817.7869,552.035 " fill="#FBFB77" style="stroke: #A80036; stroke-width: 2.98978102189781;"/><text fill="#000000" font-family="sans-serif" font-size="38.8672" lengthAdjust="spacingAndGlyphs" textLength="591.9766" x="1210.8613" y="607.3314">External links; maybe scrape data</text><!--MD5=[ae1802651284edcf6c8e312cfcd4cecd]
link Home to Creel--><path d="M791.9093,669.2464 C688.3343,733.5028 538.7227,826.3169 425.8016,896.3699 " fill="none" id="Home-&gt;Creel" style="stroke: #A80036; stroke-width: 2.98978102189781;"/><polygon fill="#A80036" points="412.219,904.7966,441.389,900.7747,424.9223,896.9164,428.7806,880.4496,412.219,904.7966" style="stroke: #A80036; stroke-width: 2.98978102189781;"/><!--MD5=[9a968ccd33a80003102e713cd2091dcb]
reverse link Species to Home--><path d="M762.738,291.063 C788.2348,341.3063 819.1312,402.1932 846.2934,455.7163 " fill="none" id="Species&lt;-Home" style="stroke: #A80036; stroke-width: 2.98978102189781;"/><polygon fill="#A80036" points="755.7,277.1904,757.2137,306.5974,762.4656,290.5208,778.5423,295.7726,755.7,277.1904" style="stroke: #A80036; stroke-width: 2.98978102189781;"/><!--MD5=[e91e2dba18875ad9718e74e631c219da]
reverse link Training to Home--><path d="M1066.2336,291.063 C1040.3631,341.3063 1009.0092,402.1932 981.4494,455.7163 " fill="none" id="Training&lt;-Home" style="stroke: #A80036; stroke-width: 2.98978102189781;"/><polygon fill="#A80036" points="1073.3762,277.1904,1050.4229,295.6351,1066.5308,290.4799,1071.686,306.5878,1073.3762,277.1904" style="stroke: #A80036; stroke-width: 2.98978102189781;"/><!--MD5=[2578997cf769dbeb96394945ce725117]
link Home to Fishing--><path d="M1034.5689,667.3748 C1140.5387,731.6282 1295.2868,825.4565 1411.9121,896.1702 " fill="none" id="Home-&gt;Fishing" style="stroke: #A80036; stroke-width: 2.98978102189781;"/><polygon fill="#A80036" points="1425.9402,904.6755,1409.1336,880.497,1413.158,896.924,1396.7311,900.9485,1425.9402,904.6755" style="stroke: #A80036; stroke-width: 2.98978102189781;"/><!--MD5=[715266d1aea3281c4a440b900f169203]
link Home to Regulations--><path d="M913.3781,726.1838 C913.3781,779.0611 913.3781,839.1144 913.3781,888.9834 " fill="none" id="Home-&gt;Regulations" style="stroke: #A80036; stroke-width: 2.98978102189781;"/><polygon fill="#A80036" points="913.3781,904.1137,925.3372,877.2057,913.3781,889.1648,901.419,877.2057,913.3781,904.1137" style="stroke: #A80036; stroke-width: 2.98978102189781;"/><!--MD5=[c95263f21a751bf3a964b5e5de15279c]
link data to Fishing--><path d="M1525.2697,630.8636 C1533.5693,692.6564 1550.4915,818.6183 1562.0679,904.8005 " fill="none" id="data-Fishing" style="stroke: #A80036; stroke-width: 2.98978102189781; stroke-dasharray: 7.0,7.0;"/><!--MD5=[e0186548c048df19de99547ad05ee2bf]
link data to Regulations--><path d="M1465.3724,630.152 C1372.2886,691.595 1180.9187,817.9193 1049.8706,904.4241 " fill="none" id="data-Regulations" style="stroke: #A80036; stroke-width: 2.98978102189781; stroke-dasharray: 7.0,7.0;"/><!--MD5=[77dc0df74eb849f314015d13c47010ea]
@startuml "processFlow"

scale 2048 width
skinparam wrapwidth 200
skinparam maxMessageSize 500
skinparam backgroundColor #FFFFFF

title Rockfish Conservation App Process Flow

class Home {
    Why important
    What we do
    How we do it
}

class Species {
    Profiles of species
}


class Training {
    Identification game
}


class Creel {
    Community submitted catch data
}


class Fishing {
    Safe gear, catching, and releasing
}

class Regulations {
    How to get involved in making change
}

Home- ->Creel
Species<- -Home
Training<- -Home
Home- ->Fishing
Home- ->Regulations

note left of Species: fishbase.org API
note right of Training: elaborate on msyphus.github.io/fish-finder
note top of Creel: Database CRUD
note "External links; maybe scrape data" as data
data .. Fishing
data .. Regulations

@enduml

PlantUML version 1.2020.10(Sun May 17 03:35:57 MDT 2020)
(GPL source distribution)
Java Runtime: OpenJDK Runtime Environment
JVM: OpenJDK 64-Bit Server VM
Java Version: 14.0.1+7
Operating System: Windows 10
Default Encoding: Cp1252
Language: en
Country: US
--></g></svg>