<?xml version="1.0" encoding="UTF-8" standalone="no"?><svg xmlns="http://www.w3.org/2000/svg" xmlns:xlink="http://www.w3.org/1999/xlink" contentScriptType="application/ecmascript" contentStyleType="text/css" height="2764.8px" preserveAspectRatio="none" style="width:2024px;height:2764px;" version="1.1" viewBox="0 0 2024 2764" width="2024.3692px" zoomAndPan="magnify"><defs><filter height="300%" id="f1jtv1j4e1rl83" width="300%" x="-1" y="-1"><feGaussianBlur result="blurOut" stdDeviation="7.876923076923077"/><feColorMatrix in="blurOut" result="blurOut2" type="matrix" values="0 0 0 0 0 0 0 0 0 0 0 0 0 0 0 0 0 0 .4 0"/><feOffset dx="15.753846153846155" dy="15.753846153846155" in="blurOut2" result="blurOut3"/><feBlend in="SourceGraphic" in2="blurOut3" mode="normal"/></filter></defs><g><!--MD5=[85bae912d113bb0b86a623a745020199]
class Home--><rect fill="#FEFECE" filter="url(#f1jtv1j4e1rl83)" height="325.3231" id="Home" style="stroke: #A80036; stroke-width: 5.907692307692308;" width="319.0154" x="1406.0308" y="1406.0308"/><text fill="#000000" font-family="sans-serif" font-size="47.2615" lengthAdjust="spacingAndGlyphs" textLength="133.9077" x="1498.5846" y="1474.7846">Home</text><line style="stroke: #A80036; stroke-width: 5.907692307692308;" x1="1409.9692" x2="1721.1077" y1="1504.8615" y2="1504.8615"/><text fill="#000000" font-family="sans-serif" font-size="43.3231" lengthAdjust="spacingAndGlyphs" textLength="271.7538" x="1429.6615" y="1565.5885">Why important</text><text fill="#000000" font-family="sans-serif" font-size="43.3231" lengthAdjust="spacingAndGlyphs" textLength="232.3692" x="1429.6615" y="1620.0808">What we do</text><text fill="#000000" font-family="sans-serif" font-size="43.3231" lengthAdjust="spacingAndGlyphs" textLength="256" x="1429.6615" y="1674.5731">How we do it</text><line style="stroke: #A80036; stroke-width: 5.907692307692308;" x1="1409.9692" x2="1721.1077" y1="1699.8462" y2="1699.8462"/><!--MD5=[4b1bbb36bf22db452d2f18c9a96e40ec]
class Species--><rect fill="#FEFECE" filter="url(#f1jtv1j4e1rl83)" height="216.3385" id="Species" style="stroke: #A80036; stroke-width: 5.907692307692308;" width="401.7231" x="880.2462" y="31.5077"/><text fill="#000000" font-family="sans-serif" font-size="47.2615" lengthAdjust="spacingAndGlyphs" textLength="177.2308" x="992.4923" y="100.2615">Species</text><line style="stroke: #A80036; stroke-width: 5.907692307692308;" x1="884.1846" x2="1278.0308" y1="130.3385" y2="130.3385"/><text fill="#000000" font-family="sans-serif" font-size="43.3231" lengthAdjust="spacingAndGlyphs" textLength="354.4615" x="903.8769" y="191.0654">Profiles of species</text><line style="stroke: #A80036; stroke-width: 5.907692307692308;" x1="884.1846" x2="1278.0308" y1="216.3385" y2="216.3385"/><!--MD5=[4034599964776293c58b00793c120f39]
class Training--><rect fill="#FEFECE" filter="url(#f1jtv1j4e1rl83)" height="216.3385" id="Training" style="stroke: #A80036; stroke-width: 5.907692307692308;" width="397.7846" x="23.6308" y="953.1077"/><text fill="#000000" font-family="sans-serif" font-size="47.2615" lengthAdjust="spacingAndGlyphs" textLength="177.2308" x="133.9077" y="1021.8615">Training</text><line style="stroke: #A80036; stroke-width: 5.907692307692308;" x1="27.5692" x2="417.4769" y1="1051.9385" y2="1051.9385"/><text fill="#000000" font-family="sans-serif" font-size="43.3231" lengthAdjust="spacingAndGlyphs" textLength="350.5231" x="47.2615" y="1112.6654">Identification game</text><line style="stroke: #A80036; stroke-width: 5.907692307692308;" x1="27.5692" x2="417.4769" y1="1137.9385" y2="1137.9385"/><!--MD5=[2ac18e450f834edecc7b1595539f49fe]
class Creel--><rect fill="#FEFECE" filter="url(#f1jtv1j4e1rl83)" height="216.3385" id="Creel" style="stroke: #A80036; stroke-width: 5.907692307692308;" width="657.7231" x="472.6154" y="1969.2308"/><text fill="#000000" font-family="sans-serif" font-size="47.2615" lengthAdjust="spacingAndGlyphs" textLength="118.1538" x="742.4" y="2037.9846">Creel</text><line style="stroke: #A80036; stroke-width: 5.907692307692308;" x1="476.5538" x2="1126.4" y1="2068.0615" y2="2068.0615"/><text fill="#000000" font-family="sans-serif" font-size="43.3231" lengthAdjust="spacingAndGlyphs" textLength="610.4615" x="496.2462" y="2128.7885">Community submitted catch data</text><line style="stroke: #A80036; stroke-width: 5.907692307692308;" x1="476.5538" x2="1126.4" y1="2154.0615" y2="2154.0615"/><!--MD5=[71399f3ba5b31d6aa8714b237b12f17c]
class Fishing--><rect fill="#FEFECE" filter="url(#f1jtv1j4e1rl83)" height="216.3385" id="Fishing" style="stroke: #A80036; stroke-width: 5.907692307692308;" width="701.0462" x="1270.1538" y="1969.2308"/><text fill="#000000" font-family="sans-serif" font-size="47.2615" lengthAdjust="spacingAndGlyphs" textLength="161.4769" x="1539.9385" y="2037.9846">Fishing</text><line style="stroke: #A80036; stroke-width: 5.907692307692308;" x1="1274.0923" x2="1967.2615" y1="2068.0615" y2="2068.0615"/><text fill="#000000" font-family="sans-serif" font-size="43.3231" lengthAdjust="spacingAndGlyphs" textLength="653.7846" x="1293.7846" y="2128.7885">Safe gear, catching, and releasing</text><line style="stroke: #A80036; stroke-width: 5.907692307692308;" x1="1274.0923" x2="1967.2615" y1="2154.0615" y2="2154.0615"/><path d="M561.2308,976.7385 L561.2308,1045.6615 L421.699,1061.4154 L561.2308,1077.1692 L561.2308,1144.9231 A0,0 0 0 0 561.2308,1144.9231 L1372.5538,1144.9231 A0,0 0 0 0 1372.5538,1144.9231 L1372.5538,1016.1231 L1333.1692,976.7385 L561.2308,976.7385 A0,0 0 0 0 561.2308,976.7385 " fill="#FBFB77" filter="url(#f1jtv1j4e1rl83)" style="stroke: #A80036; stroke-width: 3.9384615384615387;"/><path d="M1333.1692,976.7385 L1333.1692,1016.1231 L1372.5538,1016.1231 L1333.1692,976.7385 " fill="#FBFB77" style="stroke: #A80036; stroke-width: 3.9384615384615387;"/><text fill="#000000" font-family="sans-serif" font-size="51.2" lengthAdjust="spacingAndGlyphs" textLength="728.6154" x="584.8615" y="1049.5808">elaborate on msyphus.github.io/</text><text fill="#000000" font-family="sans-serif" font-size="51.2" lengthAdjust="spacingAndGlyphs" textLength="216.6154" x="584.8615" y="1113.9808">fish-finder</text><path d="M433.2308,1453.2923 L433.2308,1685.8769 A0,0 0 0 0 433.2308,1685.8769 L819.3221,1685.8769 L810.5748,1968.5573 L850.8298,1685.8769 L1256.3692,1685.8769 A0,0 0 0 0 1256.3692,1685.8769 L1256.3692,1492.6769 L1216.9846,1453.2923 L433.2308,1453.2923 A0,0 0 0 0 433.2308,1453.2923 " fill="#FBFB77" filter="url(#f1jtv1j4e1rl83)" style="stroke: #A80036; stroke-width: 3.9384615384615387;"/><path d="M1216.9846,1453.2923 L1216.9846,1492.6769 L1256.3692,1492.6769 L1216.9846,1453.2923 " fill="#FBFB77" style="stroke: #A80036; stroke-width: 3.9384615384615387;"/><text fill="#000000" font-family="sans-serif" font-size="51.2" lengthAdjust="spacingAndGlyphs" textLength="389.9077" x="456.8615" y="1526.1346">Database CRUD.</text><text fill="#000000" font-family="sans-serif" font-size="51.2" font-weight="bold" lengthAdjust="spacingAndGlyphs" textLength="287.5077" x="878.2769" y="1526.1346">Future Dev:</text><text fill="#000000" font-family="sans-serif" font-size="51.2" lengthAdjust="spacingAndGlyphs" textLength="0" x="1197.2923" y="1526.1346"/><text fill="#000000" font-family="sans-serif" font-size="51.2" lengthAdjust="spacingAndGlyphs" textLength="649.8462" x="456.8615" y="1590.5346">Fisheries Agency access for</text><text fill="#000000" font-family="sans-serif" font-size="51.2" lengthAdjust="spacingAndGlyphs" textLength="252.0615" x="456.8615" y="1654.9346">monitoring.</text><path d="M1264.2462,2485.1692 L1264.2462,2653.3538 A0,0 0 0 0 1264.2462,2653.3538 L1977.1077,2653.3538 A0,0 0 0 0 1977.1077,2653.3538 L1977.1077,2524.5538 L1937.7231,2485.1692 L1636.4308,2485.1692 L1620.6769,2186.5905 L1604.9231,2485.1692 L1264.2462,2485.1692 A0,0 0 0 0 1264.2462,2485.1692 " fill="#FBFB77" filter="url(#f1jtv1j4e1rl83)" style="stroke: #A80036; stroke-width: 3.9384615384615387;"/><path d="M1937.7231,2485.1692 L1937.7231,2524.5538 L1977.1077,2524.5538 L1937.7231,2485.1692 " fill="#FBFB77" style="stroke: #A80036; stroke-width: 3.9384615384615387;"/><text fill="#000000" font-family="sans-serif" font-size="51.2" font-weight="bold" lengthAdjust="spacingAndGlyphs" textLength="330.8308" x="1287.8769" y="2558.0115">Nice to Have:</text><text fill="#000000" font-family="sans-serif" font-size="51.2" lengthAdjust="spacingAndGlyphs" textLength="267.8154" x="1634.4615" y="2558.0115">Make game</text><text fill="#000000" font-family="sans-serif" font-size="51.2" lengthAdjust="spacingAndGlyphs" textLength="441.1077" x="1287.8769" y="2622.4115">instead of info page</text><path d="M155.5692,484.4308 L155.5692,717.0154 L1014.1538,717.0154 L1014.1538,523.8154 L974.7692,484.4308 L155.5692,484.4308 " fill="#FBFB77" filter="url(#f1jtv1j4e1rl83)" style="stroke: #A80036; stroke-width: 3.9384615384615387;"/><path d="M974.7692,484.4308 L974.7692,523.8154 L1014.1538,523.8154 L974.7692,484.4308 " fill="#FBFB77" style="stroke: #A80036; stroke-width: 3.9384615384615387;"/><text fill="#000000" font-family="sans-serif" font-size="51.2" font-weight="bold" lengthAdjust="spacingAndGlyphs" textLength="287.5077" x="179.2" y="557.2731">Future Dev:</text><text fill="#000000" font-family="sans-serif" font-size="51.2" lengthAdjust="spacingAndGlyphs" textLength="441.1077" x="498.2154" y="557.2731">Could save species</text><text fill="#000000" font-family="sans-serif" font-size="51.2" lengthAdjust="spacingAndGlyphs" textLength="732.5538" x="179.2" y="621.6731">from profiles list that are used to</text><text fill="#000000" font-family="sans-serif" font-size="51.2" lengthAdjust="spacingAndGlyphs" textLength="421.4154" x="179.2" y="686.0731">populate the game</text><path d="M25.6,2422.1538 L25.6,2719.1385 L892.0615,2719.1385 L892.0615,2461.5385 L852.6769,2422.1538 L25.6,2422.1538 " fill="#FBFB77" filter="url(#f1jtv1j4e1rl83)" style="stroke: #A80036; stroke-width: 3.9384615384615387;"/><path d="M852.6769,2422.1538 L852.6769,2461.5385 L892.0615,2461.5385 L852.6769,2422.1538 " fill="#FBFB77" style="stroke: #A80036; stroke-width: 3.9384615384615387;"/><text fill="#000000" font-family="sans-serif" font-size="51.2" font-weight="bold" lengthAdjust="spacingAndGlyphs" textLength="287.5077" x="49.2308" y="2494.9962">Future Dev:</text><text fill="#000000" font-family="sans-serif" font-size="51.2" lengthAdjust="spacingAndGlyphs" textLength="448.9846" x="368.2462" y="2494.9962">Could use the Creel</text><text fill="#000000" font-family="sans-serif" font-size="51.2" lengthAdjust="spacingAndGlyphs" textLength="665.6" x="49.2308" y="2559.3962">data to populate the game so</text><text fill="#000000" font-family="sans-serif" font-size="51.2" lengthAdjust="spacingAndGlyphs" textLength="716.8" x="49.2308" y="2623.7962">players are practicing on what's</text><text fill="#000000" font-family="sans-serif" font-size="51.2" lengthAdjust="spacingAndGlyphs" textLength="547.4462" x="49.2308" y="2688.1962">most likely to be caught</text><!--MD5=[ae1802651284edcf6c8e312cfcd4cecd]
link Home to Creel--><path d="M1405.4321,1680.0177 C1378.7018,1697.729 1351.235,1715.8774 1325.2923,1732.9231 C1210.88,1808.1083 1081.9781,1891.9542 980.673,1957.6517 " fill="none" id="Home-&gt;Creel" style="stroke: #A80036; stroke-width: 3.9384615384615387;"/><polygon fill="#A80036" points="963.3753,1968.8684,1001.6879,1962.8057,979.8991,1958.1563,984.5485,1936.3676,963.3753,1968.8684" style="stroke: #A80036; stroke-width: 3.9384615384615387;"/><!--MD5=[9a968ccd33a80003102e713cd2091dcb]
reverse link Species to Home--><path d="M1145.4976,266.6614 C1224.8064,422.53 1358.8953,701.3691 1439.5077,953.1077 C1487.6751,1103.5294 1521.8018,1280.7956 1542.2897,1405.8063 " fill="none" id="Species&lt;-Home" style="stroke: #A80036; stroke-width: 3.9384615384615387;"/><polygon fill="#A80036" points="1136.1083,248.2688,1138.2063,287.0014,1145.0677,265.8049,1166.2642,272.6663,1136.1083,248.2688" style="stroke: #A80036; stroke-width: 3.9384615384615387;"/><!--MD5=[e91e2dba18875ad9718e74e631c219da]
reverse link Training to Home--><path d="M441.4503,1152.6302 C457.9289,1158.5969 474.3562,1164.3628 490.3385,1169.7231 C855.9734,1292.3943 974.8874,1244.9241 1325.2923,1406.0308 C1352.129,1418.37 1379.3595,1433.4937 1405.373,1449.4641 " fill="none" id="Training&lt;-Home" style="stroke: #A80036; stroke-width: 3.9384615384615387;"/><polygon fill="#A80036" points="422.1086,1145.5449,449.971,1172.5318,440.5988,1152.3197,460.8108,1142.9475,422.1086,1145.5449" style="stroke: #A80036; stroke-width: 3.9384615384615387;"/><!--MD5=[2578997cf769dbeb96394945ce725117]
link Home to Fishing--><path d="M1583.1355,1733.053 C1590.847,1803.008 1599.7637,1883.8804 1606.9711,1949.2549 " fill="none" id="Home-&gt;Fishing" style="stroke: #A80036; stroke-width: 3.9384615384615387;"/><polygon fill="#A80036" points="1609.149,1969.0181,1620.9295,1932.0609,1606.9942,1949.444,1589.611,1935.5087,1609.149,1969.0181" style="stroke: #A80036; stroke-width: 3.9384615384615387;"/><!--MD5=[37fadab8f759c3267bfa3c70a715e965]
link Species to idea1--><path d="M966.0101,248.8005 C893.5385,314.9509 799.5628,400.7188 723.0622,470.5398 " fill="none" id="Species-&gt;idea1" style="stroke: #A80036; stroke-width: 3.9384615384615387; stroke-dasharray: 7.0,7.0;"/><polygon fill="#A80036" points="708.0054,484.2811,744.8074,472.0243,722.5513,471.0069,723.5687,448.7509,708.0054,484.2811" style="stroke: #A80036; stroke-width: 3.9384615384615387;"/><!--MD5=[f9d4abfc90c486eb5fdc8ecacdd5071a]
link idea1 to Training--><path d="M494.3636,717.6783 C441.4149,783.8602 374.5477,867.4462 320.3816,935.1522 " fill="none" id="idea1-&gt;Training" style="stroke: #A80036; stroke-width: 3.9384615384615387; stroke-dasharray: 7.0,7.0;"/><polygon fill="#A80036" points="306.9003,952.0049,341.3434,934.1644,319.2006,936.6267,316.7383,914.4839,306.9003,952.0049" style="stroke: #A80036; stroke-width: 3.9384615384615387;"/><!--MD5=[2c416699237abf902950bc940eba1dac]
link Creel to idea2--><path d="M727.1266,2186.5905 C682.114,2250.2321 623.7814,2332.7031 573.0107,2404.4828 " fill="none" id="Creel-&gt;idea2" style="stroke: #A80036; stroke-width: 3.9384615384615387; stroke-dasharray: 7.0,7.0;"/><polygon fill="#A80036" points="561.6286,2420.5726,594.9605,2400.7333,573.0013,2404.4962,569.2384,2382.537,561.6286,2420.5726" style="stroke: #A80036; stroke-width: 3.9384615384615387;"/><!--MD5=[c3cff43c4b64ed7e0ebef796f135383e]
link idea2 to Training--><path d="M436.157,2421.938 C390.0637,2129.2347 286.0934,1469.0265 242.4277,1191.747 " fill="none" id="idea2-&gt;Training" style="stroke: #A80036; stroke-width: 3.9384615384615387; stroke-dasharray: 7.0,7.0;"/><polygon fill="#A80036" points="239.1398,1170.8692,229.0975,1208.336,242.2061,1190.3213,260.2209,1203.4299,239.1398,1170.8692" style="stroke: #A80036; stroke-width: 3.9384615384615387;"/><!--MD5=[a97377dbf996cb18bf097d41f2908895]
@startuml "processFlow"

scale 2048 width
skinparam wrapwidth 200
skinparam maxMessageSize 500
skinparam backgroundColor #FFFFFF

class Home {
    Why important
    What we do
    How we do it
}

class Species {
    Profiles of species
}


class Training {
    Identification game
}


class Creel {
    Community submitted catch data
}


class Fishing {
    Safe gear, catching, and releasing
}

hide circle


Home- ->Creel
Species<- -Home
Training<- -Home
Home- ->Fishing

note right of Training: elaborate on msyphus.github.io/fish-finder
note top of Creel: Database CRUD.  <b>Future Dev:</b>  Fisheries Agency access for monitoring.
note bottom of Fishing: <b>Nice to Have:</b> Make game instead of info page
note "<b>Future Dev:</b>  Could save species from profiles list that are used to populate the game" as idea1
note "<b>Future Dev:</b>  Could use the Creel data to populate the game so players are practicing on what's most likely to be caught" as idea2
Species ..> idea1
idea1 ..> Training
Creel ..> idea2
idea2 ..> Training


@enduml

PlantUML version 1.2020.10(Sun May 17 03:35:57 MDT 2020)
(GPL source distribution)
Java Runtime: OpenJDK Runtime Environment
JVM: OpenJDK 64-Bit Server VM
Java Version: 14.0.1+7
Operating System: Windows 10
Default Encoding: Cp1252
Language: en
Country: US
--></g></svg>